<?xml version="1.0" encoding="utf-8"?>
<!-- Designed by Vexels.com - 2020 All Rights Reserved - https://vexels.com/terms-and-conditions/  -->
<svg version="1.1" id="Layer_1" xmlns="http://www.w3.org/2000/svg" xmlns:xlink="http://www.w3.org/1999/xlink" x="0px" y="0px"
	 viewBox="0 0 1200 1200" enable-background="new 0 0 1200 1200" xml:space="preserve">
<g>
	<path fill="#202020" d="M437.001,100.535c10.043-11.422,20.426-23.202,30.776-35.009c15.682-17.889,26.073-18.744,41.037-1.392
		c22.98,26.648,45.038,54.05,67.504,81.118c2.816,3.393,5.738,6.702,9.368,10.932c5.641-3.449,11.005-6.622,16.26-9.961
		c20.528-13.046,39.428-11.812,54.107,6.767c46.896,59.357,93.375,119.045,139.003,179.334
		c72.567,95.883,136.413,197.204,195.394,301.579c27.023,47.821,56.253,94.443,84.31,141.707
		c10.631,17.909,21.721,35.654,30.744,54.34c4.446,9.208,6.177,20.336,6.413,30.688c0.307,13.432-12.652,14.863-22.184,20.05
		c-34.734,18.902-68.496,39.514-103.184,58.5c-97.825,53.541-195.437,107.494-294.181,159.368
		c-33.371,17.531-69.087,31.031-103.991,45.669c-6.95,2.914-14.165,5.883-21.696,5.77c-16.349-0.245-25.819-15.309-33.957-26.944
		c-33.586-48.024-71.559-93.235-103.387-142.293c-72.88-112.335-154.677-218.236-236.918-323.978
		c-31.365-40.328-58.34-83.879-88.873-124.855c-17.85-23.955-21.342-46.986-4.719-72.679c17.342-26.806,34.037-54.005,51.6-80.672
		c35.143-53.358,69.673-107.133,106.343-159.501c38.456-54.917,79.079-108.418,118.871-162.458
		c6.106-8.292,12.677-9.024,19.985-0.86C408.932,70.619,422.69,85.097,437.001,100.535z M1077.156,849.85
		c-3.693-7.528-70.126-108.136-94.32-153.32c-50.977-95.199-109.912-185.518-170.51-274.796
		c-51.137-75.34-105.645-148.494-158.536-222.7c-6.635-9.309-12.507-19.135-20.344-31.204
		C461.369,285.354,303.608,403.91,124.768,506.127c22.761,27.635,42.99,60.709,65.008,87.454
		c7.926,9.627,155.319,204.541,220.518,293.941c53.382,73.198,164.501,231.384,167.177,236.039
		C745.187,1035.449,904.683,933.393,1077.156,849.85z M180.934,438.277c120.794-68.426,260.827-184.104,373.891-261.988
		c-20.629-31.141-40.542-61.202-60.436-91.232C400.935,193.713,274.121,329.933,180.934,438.277z M387.821,85.823
		c-73.405,115.294-170.417,246.023-236.893,350.434c76.565-90.844,181.983-211.179,265.278-310.007
		C405.103,110.438,398.191,100.592,387.821,85.823z"/>
	<path fill="#202020" d="M243.229,549.833c10.579,10.815,21.583,21.382,30.913,33.181c32.291,40.83,64.27,81.905,95.704,123.365
		c14.293,18.852,27.905,38.189,40.948,57.886c52.142,78.744,103.864,157.753,155.73,236.67c1.459,2.22,3.979,4.477,3.998,6.759
		c0.009,1.09-0.026,2.18-0.094,3.272c-0.481,7.79-8.85,13.443-15.961,9.919c-1.102-0.546-2.034-1.22-2.715-2.082
		c-12.092-15.328-22.739-31.756-33.646-47.953c-46.13-68.504-91.288-137.652-138.55-205.4
		c-28.956-41.507-61.898-80.345-91.503-121.444c-19.956-27.704-37.326-57.194-55.533-86.078c-0.868-1.377-1.456-2.924-1.918-4.546
		c-1.2-4.207,3.179-7.971,7.377-6.427C240.182,547.762,242.186,548.766,243.229,549.833z"/>
	<path fill="#202020" d="M515.192,541.595c11.357,20.028,21.68,37.449,31.122,55.318c3.242,6.135,5.822,13.37,5.828,20.141
		c0.005,5.272-3.267,13.645-7.221,15.138c-4.871,1.84-12.617-0.912-17.872-3.794c-3.877-2.126-6.436-7.34-8.413-11.691
		c-13.535-29.791-27.019-59.611-39.833-89.705c-2.15-5.049-3.248-15.177-0.89-16.57c7.119-4.205,17.248-8.757,24.258-6.815
		c14.167,3.924,27.286,11.626,40.401,18.539c14.284,7.53,28.074,15.932,45.72,26.039c-12.425-21.227-23.045-38.82-33.056-56.74
		c-4.07-7.286-7.589-15.07-9.806-23.054c-0.953-3.433,0.843-9.887,3.545-11.489c3.486-2.066,9.714-1.969,13.689-0.363
		c4.272,1.726,8.54,5.652,10.674,9.701c15.236,28.906,30.438,57.857,44.35,87.384c2.699,5.729,1.996,16.599-1.262,20.567
		c-6.168,7.514-20.076,19.77-35.241,10.481c-17.996-11.024-35.659-22.556-53.407-33.956
		C524.147,548.393,520.782,545.671,515.192,541.595z"/>
	<path fill="#202020" d="M711.132,466.936c-4.203,2.953-7.944,7.203-12.552,9.548c-6.789,3.454-19.317,3.556-25.685-0.763
		c-7.464-5.063-6.147-14.889,0.276-21.226c8.617-8.503,18.022-16.56,28.204-23.167c8.868-5.755,17.546-1.684,24.568,4.991
		c19.741,18.764,23.702,66.054,7.456,88.244c-15.257,20.838-51.67,25.712-75.312,8.89c-26.677-18.982-35.939-46.632-35.752-77.735
		c0.057-9.581,1.772-19.457,4.663-28.645c0.315-1.002,0.935-1.917,1.749-2.777c4.883-5.16,13.872-3.861,17.28,2.221
		c0.409,0.729,0.742,1.48,0.973,2.261c4.749,16.047,7.409,32.761,12.993,48.483c2.973,8.371,8.898,17.158,16.142,22.182
		c3.931,2.726,8.738,4.299,13.499,5.028c4.445,0.681,9.629,1.181,13.304-1.927c2.001-1.692,3.368-3.978,4.485-6.31
		C712.101,486.456,711.196,477.28,711.132,466.936z"/>
	<path fill="#202020" d="M428.378,641.398c6.822,9.857,12.83,18.54,19.132,27.646c7.241-6.296,13.962-13.047,21.644-18.51
		c5.379-3.825,11.844-6.843,18.266-8.367c3.588-0.852,9.893,0.915,11.706,3.604c2.281,3.384,3.323,11.556,1.272,13.111
		c-17.836,13.517-31.338,27.808-55.512,37.647c-4.356,2.229-19.203-8.527-24.655-16.341c-16.976-24.331-31.748-50.128-47.41-75.335
		c-2.309-3.717-16.982-26.313-10.292-33.261c13.074-13.577,27.676-25.801,42.052-38.136c2.869-2.462,7.531-3.895,11.412-4.042
		c4.547-0.172,11.4,1.038,13.066,2.723c5.042,5.099,1.603,12.329-1.402,15.459c-9.621,10.02-18.142,16.418-28.92,25.361
		c-4.815,3.995-7.523,5.923-13.349,10.208l26.807,39.565c4.158-4.679,7.241-9.192,11.341-12.515
		c5.87-4.758,11.988-10.497,18.932-12.331c0.638-0.168,1.292-0.275,1.96-0.328c10.462-0.841,16.665,11.69,10.135,19.747
		c-0.173,0.213-0.351,0.422-0.535,0.626C446.541,626.223,437.509,633.206,428.378,641.398z"/>
	<path fill="#202020" d="M526.844,707.372c-5.268,2.088-11.363,2.004-16.108-0.94c-1.096-0.68-1.876-1.443-2.036-2.32
		c-0.705-3.881,2.779-10.527,6.517-12.916c30.215-19.31,60.806-38.067,91.492-56.66c29.141-17.657,58.44-35.071,87.893-52.224
		c6.584-3.835,14.001-8.105,21.217-8.54c6.031-0.364,14.862,3.078,17.706,7.657c2.266,3.649-1.814,11.945-4.657,17.42
		c-1.628,3.135-6.223,5.092-9.802,7.006c-60.532,32.382-121.097,64.704-181.716,96.929
		C534.22,704.448,530.896,705.766,526.844,707.372z"/>
</g>
</svg>
