<?xml version="1.0" encoding="UTF-8" standalone="no"?>
<!DOCTYPE svg PUBLIC "-//W3C//DTD SVG 1.1//EN" "http://www.w3.org/Graphics/SVG/1.1/DTD/svg11.dtd">
<svg viewBox="0 0 875 792" version="1.1" xmlns="http://www.w3.org/2000/svg">
	<g stroke-miterlimit="2">
		<title>Hello World in OpenAir font family, by G. Adam Stanislav</title>
		<g fill="#009abc" fill-opacity="0.5">
			<path d="m407.097 177.813c4.341 8.161 12.83 13.261 22.073 13.261 9.244 0 17.733-5.1 22.073-13.261 67.343-126.629 201.408-129.221 268.752-65.906 26.79 25.187 42.407 60.664 47.765 101.97 8.68 66.916-9.313 148.378-52.713 229.983-0.11 0.206-0.217 0.414-0.321 0.624-50.116 100.965-176.578 201.196-285.556 271.042-108.978-69.846-235.44-170.077-285.556-271.042-0.103-0.21-0.21-0.417-0.32-0.624-43.399-81.605-61.391-163.067-52.711-229.983 5.358-41.306 20.973-76.784 47.763-101.97 67.344-63.315 201.408-60.723 268.751 65.906z"/>
			<path d="m439.17 118.793c-91.483-126.462-245.278-118.335-325.073-43.314-83.312 78.327-88.308 234.901-5.109 391.556 55.725 111.941 197.837 224.642 316.905 299.272 8.12 5.089 18.434 5.089 26.554 0 119.074-74.633 261.195-187.343 316.917-299.294 83.19-156.636 78.194-313.208-5.121-391.535-79.795-75.02-233.59-83.147-325.073 43.315zm-22.073 59.02c4.341 8.161 12.83 13.261 22.073 13.261 9.244 0 17.733-5.1 22.073-13.261 67.343-126.629 201.408-129.221 268.752-65.906 26.79 25.187 42.407 60.664 47.765 101.97 8.68 66.916-9.313 148.378-52.713 229.983-0.11 0.206-0.217 0.414-0.321 0.624-50.116 100.965-176.578 201.196-285.556 271.042-108.978-69.846-235.44-170.077-285.556-271.042-0.103-0.21-0.21-0.417-0.32-0.624-43.399-81.605-61.391-163.067-52.711-229.983 5.358-41.306 20.973-76.784 47.763-101.97 67.344-63.315 201.408-60.723 268.751 65.906z"/>
		</g>
		<g style="fill:none;stroke:#00294b;stroke-width:40.15px">
			<path d="m145.149 293.382c2.039 4.124 7.126 5.847 11.247 3.81l14.869-7.351c4.121-2.038 5.841-7.127 3.802-11.25l-22.513-45.539 43.409-21.461 22.514 45.539c2.039 4.123 7.126 5.847 11.247 3.81l14.691-7.263c4.12-2.037 5.84-7.126 3.801-11.25l-55.486-112.231c-2.038-4.124-7.116-5.827-11.236-3.79l-14.691 7.263c-4.12 2.037-5.85 7.106-3.812 11.229l19.067 38.567-43.409 21.461-19.067-38.567c-2.039-4.123-7.117-5.826-11.238-3.789l-14.869 7.351c-4.12 2.037-5.85 7.106-3.812 11.23z"/>
			<path d="m271.794 235.433c0.93 4.501 5.221 7.491 9.723 6.561l91.644-18.943c4.505-0.931 7.261-5.379 6.331-9.879l-2.994-14.483c-0.93-4.501-5.224-7.491-9.729-6.56l-67.18 13.887-5.227-25.291 59.737-12.348c4.505-0.931 7.262-5.378 6.331-9.879l-2.993-14.483c-0.931-4.5-5.184-7.294-9.689-6.363l-59.737 12.348-4.418-21.373 64.242-13.279c4.505-0.932 7.498-5.223 6.568-9.724l-2.994-14.483c-0.93-4.501-5.42-7.45-9.925-6.519l-88.706 18.336c-4.502 0.93-7.256 5.377-6.325 9.878z"/>
			<path d="m399.05 211.975c0.055 4.596 3.897 8.348 8.493 8.292l78.176-0.936c4.6-0.055 8.354-3.897 8.299-8.494l-0.177-14.787c-0.055-4.595-3.9-8.347-8.5-8.292l-53.196 0.638-1.222-102.017c-0.055-4.6-3.897-8.33-8.494-8.275l-16.587 0.199c-4.595 0.055-8.347 3.876-8.292 8.476z"/>
			<path d="m513.605 212.205c-0.757 4.533 2.364 8.904 6.897 9.661l77.114 12.876c4.537 0.757 8.91-2.362 9.667-6.895l2.436-14.587c0.757-4.534-2.366-8.905-6.903-9.662l-52.474-8.762 16.803-100.63c0.757-4.538-2.366-8.888-6.899-9.645l-16.362-2.732c-4.533-0.756-8.901 2.342-9.659 6.881z"/>
			<path d="m631.438 168.99c-4.426 11.373-6.285 23.316-5.246 35.526 0.895 12.578 5.415 23.558 12.894 33.545 7.562 9.804 17.516 17.324 30.009 22.185 11.56 4.499 23.202 6.027 35.185 4.472 12.233-1.673 23.243-6.823 33.036-15.455 9.206-8.225 16.497-18.696 21.503-31.561l0.435-1.119c4.934-12.678 6.825-25.251 5.715-37.275-1.082-12.651-5.53-23.817-13.081-33.618-7.635-9.618-17.476-16.878-29.782-21.667-18.831-7.329-36.396-6.874-53.171 0.966-16.332 7.801-29.081 22.374-37.497 44.001zm31.403 12.436 1.016-2.611c0.725-1.864 1.306-3.356 2.146-4.96l0.145-0.374c5.14-10.45 10.984-17.192 18.422-20.309 8.735-3.685 17.54-3.693 26.489-0.21 6.154 2.394 10.98 5.99 14.781 11.119 3.614 5.056 5.674 10.795 6.108 17.404 0.402 7.241-1.122 15.019-4.314 23.222-4.934 12.678-11.648 21.658-20.672 26.089-8.506 4.204-17.384 4.399-26.707 0.77-9.136-3.555-15.734-9.772-19.161-18.619-3.727-9.178-2.824-19.776 1.747-31.521z"/>
			<path d="m738.845 302.883c-0.901 1.321-1.306 2.981-1.434 4.587l-0.248 7.815c-0.03 2.883 1.328 5.503 3.64 7.079 0.99 0.676 2.206 1.021 3.258 1.253 7.304 1.35 13.631 0.583 19.314-2.076 5.127-2.554 10.164-7.104 14.668-13.711l10.023-14.702c2.59-3.799 1.643-8.799-2.154-11.387l-14.533-9.907c-3.797-2.589-8.961-1.755-11.551 2.044l-9.91 14.537c-2.364 3.469-1.803 7.965 1.163 10.711-1.059 0.489-2.499 0.474-3.828 0.295-2.38-0.413-4.715 0.173-6.726 1.705-0.616 0.549-1.232 1.096-1.682 1.757z"/>
			<path d="m45.428 458.948c0.378 0.705 0.567 1.057 1.122 1.667l88.768 94.663c2.584 2.698 6.634 3.474 9.981 1.676l14.8-7.951c3.348-1.798 5.112-5.698 4.29-9.342l-18.398-81.157 57.511 60.145c2.585 2.698 6.634 3.474 9.982 1.676l14.094-7.572c3.348-1.798 4.937-5.603 4.114-9.248l-28.946-126.572c-0.202-0.799-0.31-1.423-0.689-2.127-0.851-1.586-2.326-3.064-4.044-3.725-2.35-0.994-5.028-0.908-7.319 0.322l-14.623 7.856c-3.348 1.798-5.121 5.683-4.207 9.496l18.448 70.686c-1.759-2.006-3.789-4.094-5.724-6.006l-45.86-47.333c-2.58-2.689-6.528-3.276-9.875-1.478l-17.619 9.465c-3.348 1.799-5.038 5.414-4.22 9.05l16.507 74.68-49.617-56.439c-2.499-2.962-6.717-3.629-10.064-1.83l-14.976 8.045c-2.29 1.23-3.841 3.416-4.309 5.925-0.397 1.796 0.021 3.842 0.873 5.428z"/>
			<path d="m259.498 426.623c2.227 11.998 6.935 23.13 14.249 32.963 7.385 10.221 17.009 17.174 28.627 21.725 11.591 4.353 24.013 5.503 37.193 3.057 12.197-2.264 22.899-7.096 32.267-14.73 9.517-7.864 16.164-18.041 19.943-30.535 3.495-11.84 4.179-24.582 1.66-38.154l-0.22-1.181c-2.482-13.375-7.497-25.059-14.774-34.697-7.581-10.184-17.242-17.334-28.824-21.688-11.555-4.156-23.744-5.145-36.727-2.736-19.868 3.688-34.56 13.325-44.692 28.823-9.775 15.233-12.937 34.336-8.702 57.153zm33.244-5.967-0.511-2.754c-0.365-1.967-0.657-3.541-0.789-5.348l-0.073-0.393c-1.134-11.591 0.283-20.399 4.965-26.966 5.484-7.733 12.965-12.377 22.407-14.129 6.492-1.205 12.489-0.69 18.42 1.667 5.736 2.395 10.509 6.189 14.359 11.579 4.155 5.943 6.956 13.359 8.563 22.013 2.482 13.376 1.503 24.545-3.835 33.064-5.016 8.054-12.461 12.895-22.297 14.72-9.638 1.789-18.522-0.021-26.094-5.738-8.002-5.84-12.815-15.324-15.115-27.715z"/>
			<path d="m424.443 461.191c-0.232 4.594 3.368 8.581 7.959 8.813l16.566 0.838c4.591 0.232 8.375-3.381 8.607-7.976l2.384-47.139 15.388 0.778c1.199 0.06 2.199 0.111 2.987 0.351 1.579 0.48 3.128 1.56 4.676 2.64 1.938 1.299 3.825 3.597 6.072 6.715 2.805 3.946 6.519 9.741 10.753 17.165l15.064 26.795c1.476 2.477 4.189 4.216 6.984 4.358l20.759 1.049c2.996 0.152 5.884-1.504 7.413-4.03 0.66-1.168 1.13-2.546 1.201-3.945 0.081-1.598-0.248-3.016-0.976-4.455l-20.036-35.256c-3.5-5.985-7.239-11.178-11.019-15.572 5.71-2.112 10.452-4.874 14.236-8.484 7.57-7.221 11.636-16.423 12.203-27.62l0.02-0.399c0.424-8.398-1.387-16.099-5.225-23.297-4.018-7.606-9.764-12.699-17.197-16.076-6.456-2.927-15.974-4.81-28.365-5.436l-55.325-2.798c-4.592-0.232-8.575 3.369-8.808 7.959zm37.09-76.6 1.244-24.593 31.376 1.586c6.794 0.344 11.551 1.386 14.606 4.347 2.288 2.321 3.345 5.181 3.173 8.58-0.122 2.399-0.832 4.568-2.332 6.497-1.3 1.939-3.369 3.237-5.809 3.916-3.668 1.218-8.484 1.375-14.879 1.052z"/>
			<path d="m569.29 471.821c-1.18 4.443 1.515 9.087 5.957 10.267l75.562 20.07c4.446 1.181 9.093-1.513 10.273-5.956l3.796-14.292c1.18-4.442-1.518-9.087-5.964-10.268l-51.417-13.658 26.191-98.604c1.181-4.446-1.52-9.071-5.962-10.251l-16.032-4.258c-4.442-1.18-9.081 1.495-10.262 5.941z"/>
			<path d="m678.396 500.77c-2.227 4.022-0.745 9.183 3.277 11.41l39.534 21.892c7.352 4.072 14.041 6.861 20.417 8.564 6.726 1.898 13.234 2.532 18.979 2.058 5.745-0.473 12.089-2.442 18.472-5.305 6.11-2.784 12.202-7.183 18.545-13.274 5.975-5.84 11.385-13.135 16.328-22.061l0.484-0.875c5.815-10.501 9.476-20.824 10.884-30.793 1.522-10.586 0.519-20.736-3.028-30.01-2.728-7.45-7.457-14.18-14.016-20.096-4.32-3.763-10.935-8.34-20.212-13.477l-37.609-20.826c-4.021-2.227-9.182-0.746-11.409 3.276zm40.252-4.208 38.283-69.133 15.755 8.725c7.352 4.071 12.488 7.6 15.135 10.667 3.154 3.804 4.638 8.972 4.919 15.073 0.244 6.996-2.524 15.297-7.952 25.098-4.07 7.351-8.259 13.264-12.918 17.546-4.095 3.677-8.056 6.287-12.407 7.537-2.719 0.78-5.673 0.746-8.959 0.069-4.179-0.714-9.45-3.174-15.751-6.664z"/>
		</g>
		<g fill="#00ff78">
			<path d="m145.144 293.399c2.039 4.123 7.129 5.846 11.253 3.807l14.88-7.357c4.124-2.038 5.846-7.129 3.808-11.252l-22.514-45.539 43.387-21.45 22.514 45.539c2.039 4.123 7.129 5.845 11.253 3.807l14.701-7.268c4.124-2.039 5.846-7.13 3.807-11.253l-55.486-112.233c-2.039-4.124-7.129-5.846-11.253-3.808l-14.701 7.269c-4.124 2.038-5.846 7.129-3.808 11.252l19.057 38.547-43.387 21.45-19.057-38.547c-2.038-4.123-7.129-5.845-11.253-3.807l-14.88 7.357c-4.124 2.039-5.846 7.129-3.808 11.253z" style=""/>
			<path d="m271.783 235.441c0.931 4.505 5.226 7.498 9.731 6.567l91.662-18.947c4.505-0.931 7.261-5.381 6.33-9.886l-2.996-14.494c-0.931-4.505-5.226-7.497-9.73-6.566l-67.18 13.886-5.223-25.266 59.737-12.348c4.505-0.931 7.261-5.381 6.33-9.885l-2.996-14.494c-0.931-4.505-5.185-7.302-9.69-6.37l-59.737 12.347-4.413-21.348 64.242-13.279c4.505-0.931 7.498-5.226 6.566-9.731l-2.995-14.494c-0.932-4.504-5.422-7.456-9.927-6.525l-88.724 18.339c-4.505 0.931-7.261 5.381-6.33 9.886z" style=""/>
			<path d="m399.037 211.981c0.055 4.599 3.9 8.354 8.5 8.299l78.194-0.937c4.6-0.055 8.354-3.9 8.299-8.5l-0.177-14.799c-0.055-4.6-3.9-8.354-8.5-8.299l-53.196 0.637-1.222-101.992c-0.055-4.6-3.9-8.354-8.5-8.299l-16.599 0.199c-4.599 0.055-8.354 3.9-8.298 8.5z" style=""/>
			<path d="m513.592 212.208c-0.757 4.537 2.365 8.911 6.902 9.669l77.132 12.879c4.538 0.757 8.912-2.365 9.669-6.902l2.438-14.598c0.757-4.537-2.365-8.911-6.902-9.669l-52.474-8.762 16.799-100.607c0.757-4.537-2.365-8.911-6.902-9.668l-16.374-2.734c-4.537-0.758-8.911 2.364-9.668 6.902z" style=""/>
			<path d="m631.427 168.985c-4.424 11.37-6.281 23.309-5.238 35.519 0.898 12.582 5.421 23.57 12.906 33.565 7.557 9.809 17.507 17.329 29.995 22.189 11.556 4.497 23.195 6.021 35.177 4.46 12.241-1.674 23.26-6.829 33.059-15.463 9.208-8.221 16.501-18.688 21.505-31.549l0.435-1.118c4.933-12.674 6.82-25.246 5.704-37.269-1.084-12.655-5.534-23.829-13.092-33.638-7.63-9.622-17.466-16.883-29.767-21.67-18.825-7.326-36.388-6.864-53.176 0.982-16.343 7.804-29.094 22.371-37.508 43.992zm31.426 12.444 1.016-2.609c0.725-1.864 1.305-3.355 2.145-4.96l0.145-0.373c5.138-10.447 10.98-17.188 18.416-20.303 8.731-3.684 17.533-3.693 26.48-0.211 6.151 2.393 10.975 5.988 14.775 11.115 3.613 5.054 5.672 10.791 6.106 17.398 0.402 7.239-1.122 15.016-4.314 23.217-4.932 12.674-11.644 21.651-20.665 26.081-8.503 4.202-17.378 4.397-26.697 0.77-9.133-3.554-15.728-9.769-19.154-18.613-3.725-9.176-2.822-19.769 1.747-31.512z" style=""/>
			<path d="m738.831 302.881c-0.901 1.322-1.307 2.982-1.435 4.589l-0.247 7.819c-0.03 2.885 1.33 5.506 3.644 7.083 0.991 0.676 2.208 1.021 3.26 1.254 7.308 1.352 13.64 0.585 19.326-2.074 5.13-2.555 10.169-7.107 14.675-13.717l10.027-14.708c2.591-3.8 1.644-8.803-2.157-11.394l-14.542-9.913c-3.801-2.591-8.969-1.757-11.56 2.043l-9.913 14.543c-2.366 3.47-1.802 7.969 1.165 10.718-1.059 0.488-2.502 0.474-3.831 0.293-2.381-0.413-4.717 0.174-6.73 1.706-0.616 0.548-1.232 1.097-1.682 1.758z" style=""/>
			<path d="m45.433 458.958c0.379 0.705 0.568 1.058 1.123 1.668l88.767 94.662c2.585 2.698 6.634 3.475 9.982 1.676l14.8-7.95c3.347-1.799 5.112-5.698 4.289-9.343l-18.397-81.156 57.511 60.145c2.584 2.698 6.634 3.474 9.981 1.675l14.095-7.571c3.348-1.799 4.936-5.604 4.114-9.248l-28.946-126.573c-0.203-0.799-0.31-1.422-0.689-2.127-0.852-1.586-2.327-3.063-4.046-3.729-2.356-1.005-5.039-0.926-7.329 0.305l-14.623 7.855c-3.348 1.799-5.113 5.698-4.195 9.519l18.448 70.686c-1.759-2.007-3.789-4.095-5.724-6.006l-45.861-47.333c-2.584-2.698-6.539-3.298-9.886-1.5l-17.619 9.465c-3.348 1.798-5.031 5.427-4.208 9.071l16.507 74.68-49.617-56.439c-2.503-2.969-6.729-3.65-10.076-1.852l-14.976 8.045c-2.291 1.231-3.837 3.424-4.3 5.943-0.395 1.801 0.023 3.847 0.875 5.432z"/>
			<path d="m259.485 426.624c2.226 11.995 6.936 23.123 14.253 32.953 7.389 10.223 17.021 17.182 28.648 21.737 11.589 4.358 24.008 5.511 37.183 3.065 12.192-2.263 22.89-7.096 32.253-14.733 9.524-7.87 16.177-18.055 19.959-30.555 3.499-11.838 4.186-24.577 1.667-38.145l-0.219-1.18c-2.482-13.372-7.498-25.052-14.778-34.685-7.586-10.187-17.254-17.343-28.844-21.701-11.554-4.161-23.739-5.154-36.718-2.745-19.861 3.686-34.548 13.328-44.687 28.839-9.783 15.241-12.951 34.34-8.717 57.15zm33.269-5.971-0.511-2.753c-0.365-1.967-0.657-3.54-0.789-5.346l-0.073-0.393c-1.134-11.588 0.283-20.394 4.964-26.959 5.481-7.73 12.959-12.373 22.398-14.125 6.489-1.204 12.484-0.689 18.414 1.668 5.733 2.394 10.505 6.187 14.353 11.575 4.154 5.942 6.954 13.355 8.56 22.008 2.482 13.371 1.503 24.537-3.832 33.054-5.015 8.05-12.457 12.89-22.289 14.715-9.636 1.788-18.515-0.022-26.085-5.736-8-5.839-12.811-15.32-15.11-27.708z" style=""/>
			<path d="m424.43 461.202c-0.232 4.595 3.371 8.582 7.965 8.814l16.579 0.838c4.594 0.233 8.382-3.381 8.614-7.975l2.383-47.14 15.381 0.778c1.198 0.061 2.197 0.111 2.986 0.351 1.578 0.481 3.125 1.56 4.673 2.64 1.936 1.299 3.823 3.597 6.068 6.715 2.804 3.946 6.517 9.741 10.747 17.164l15.066 26.795c1.477 2.478 4.193 4.217 6.989 4.359l20.773 1.05c2.997 0.152 5.884-1.505 7.413-4.031 0.66-1.168 1.13-2.546 1.201-3.944 0.081-1.598-0.248-3.016-0.976-4.455l-20.045-35.257c-3.502-5.985-7.245-11.18-11.028-15.577 5.714-2.114 10.46-4.878 14.247-8.491 7.575-7.227 11.645-16.433 12.211-27.619l0.02-0.4c0.424-8.389-1.389-16.09-5.231-23.293-4.02-7.613-9.77-12.71-17.209-16.09-6.46-2.93-15.977-4.813-28.361-5.439l-55.33-2.798c-4.594-0.232-8.581 3.371-8.813 7.965zm37.117-76.623 1.242-24.568 31.36 1.585c6.792 0.344 11.545 1.385 14.6 4.343 2.285 2.318 3.342 5.175 3.171 8.571-0.121 2.397-0.832 4.564-2.331 6.491-1.299 1.936-3.368 3.234-5.805 3.911-3.666 1.217-8.48 1.374-14.872 1.051z" style=""/>
			<path d="m569.276 471.823c-1.181 4.446 1.516 9.094 5.962 10.275l75.579 20.075c4.446 1.181 9.094-1.516 10.275-5.962l3.8-14.304c1.18-4.446-1.517-9.094-5.963-10.275l-51.417-13.657 26.185-98.582c1.181-4.446-1.516-9.094-5.962-10.275l-16.044-4.261c-4.445-1.181-9.094 1.516-10.274 5.962z" style=""/>
			<path d="m678.382 500.77c-2.228 4.024-0.745 9.189 3.28 11.417l39.542 21.897c7.348 4.07 14.034 6.858 20.408 8.558 6.724 1.895 13.233 2.527 18.982 2.053 5.75-0.474 12.099-2.445 18.486-5.309 6.115-2.787 12.209-7.185 18.553-13.274 5.975-5.836 11.385-13.128 16.326-22.051l0.485-0.875c5.813-10.498 9.47-20.818 10.875-30.786 1.52-10.589 0.515-20.747-3.033-30.028-2.73-7.455-7.46-14.19-14.014-20.105-4.318-3.763-10.929-8.338-20.202-13.474l-37.618-20.831c-4.024-2.228-9.189-0.744-11.418 3.28zm40.284-4.213 38.27-69.111 15.747 8.72c7.349 4.069 12.482 7.598 15.128 10.663 3.152 3.804 4.636 8.969 4.916 15.068 0.243 6.993-2.524 15.292-7.949 25.09-4.07 7.348-8.258 13.259-12.914 17.539-4.094 3.677-8.053 6.286-12.402 7.535-2.719 0.781-5.672 0.746-8.956 0.071-4.177-0.713-9.445-3.173-15.744-6.661z" style=""/>
		</g>
		<g fill="#005b24">
			<path d="m145.144 293.399c2.039 4.123 7.129 5.846 11.253 3.807l14.88-7.357c4.124-2.038 5.846-7.129 3.808-11.252l-22.514-45.539 43.387-21.45 22.514 45.539c2.039 4.123 7.129 5.845 11.253 3.807l14.701-7.268c4.124-2.039 5.846-7.13 3.807-11.253l-55.486-112.233c-2.039-4.124-7.129-5.846-11.253-3.808l-14.701 7.269c-4.124 2.038-5.846 7.129-3.808 11.252l19.057 38.547-43.387 21.45-19.057-38.547c-2.038-4.123-7.129-5.845-11.253-3.807l-14.88 7.357c-4.124 2.039-5.846 7.129-3.808 11.253zm10.578-5.23-55.487-112.233c-0.443-0.896-0.26-1.879 0.637-2.322l14.881-7.357c0.896-0.443 1.788 0.008 2.232 0.904l22.07 44.642 55.4-27.388-22.071-44.643c-0.443-0.896-0.081-1.968 0.816-2.411l14.701-7.268c0.897-0.443 1.969-0.081 2.412 0.816l55.486 112.233c0.443 0.896-0.008 1.789-0.904 2.232l-14.702 7.268c-0.896 0.443-1.879 0.26-2.322-0.636l-25.439-51.456-55.4 27.389 25.439 51.455c0.443 0.897 0.171 1.701-0.725 2.144l-14.881 7.357c-0.896 0.443-1.7 0.171-2.143-0.726zm2.159-2.852 12.012-5.939-25.438-51.455c-0.443-0.896-0.26-1.879 0.636-2.323l58.448-28.895c0.896-0.443 1.788 0.008 2.232 0.904l25.438 51.456 11.833-5.851-54.068-109.364-11.833 5.85 22.071 44.642c0.443 0.897 0.171 1.7-0.726 2.144l-58.447 28.895c-0.896 0.443-1.7 0.171-2.143-0.725l-22.071-44.642-12.012 5.938z"/>
			<path d="m271.783 235.441c0.931 4.505 5.226 7.498 9.731 6.567l91.662-18.947c4.505-0.931 7.261-5.381 6.33-9.886l-2.996-14.494c-0.931-4.505-5.226-7.497-9.73-6.566l-67.18 13.886-5.223-25.266 59.737-12.348c4.505-0.931 7.261-5.381 6.33-9.885l-2.996-14.494c-0.931-4.505-5.185-7.302-9.69-6.37l-59.737 12.347-4.413-21.348 64.242-13.279c4.505-0.931 7.498-5.226 6.566-9.731l-2.995-14.494c-0.932-4.504-5.422-7.456-9.927-6.525l-88.724 18.339c-4.505 0.931-7.261 5.381-6.33 9.886zm11.36-2.348-25.343-122.608c-0.203-0.979 0.223-1.884 1.202-2.086l88.725-18.34c0.979-0.202 1.728 0.46 1.931 1.439l2.996 14.493c0.202 0.98-0.264 1.689-1.243 1.891l-70.901 14.656 7.084 34.275 66.397-13.724c0.979-0.203 1.688 0.263 1.891 1.243l2.995 14.493c0.203 0.98-0.263 1.689-1.243 1.891l-66.396 13.724 7.975 38.585 73.84-15.263c0.979-0.202 1.688 0.264 1.89 1.243l2.996 14.494c0.203 0.979-0.264 1.688-1.243 1.89l-91.662 18.947c-0.979 0.203-1.688-0.263-1.891-1.243zm3.006-2.255 88.137-18.218-2.348-11.36-73.644 15.222c-0.979 0.203-1.688-0.263-1.89-1.243l-8.624-41.718c-0.202-0.979 0.264-1.688 1.243-1.89l66.201-13.684-2.308-11.164-66.2 13.684c-0.98 0.202-1.729-0.46-1.932-1.439l-7.732-37.409c-0.202-0.98 0.223-1.885 1.202-2.087l70.902-14.656-2.308-11.164-85.395 17.652z"/>
			<path d="m399.037 211.981c0.055 4.599 3.9 8.354 8.5 8.299l78.194-0.937c4.6-0.055 8.354-3.9 8.299-8.5l-0.177-14.799c-0.055-4.6-3.9-8.354-8.5-8.299l-53.196 0.637-1.222-101.992c-0.055-4.6-3.9-8.354-8.5-8.299l-16.599 0.199c-4.599 0.055-8.354 3.9-8.298 8.5zm11.799-0.142-1.499-125.191c-0.012-0.999 0.578-1.807 1.578-1.819l16.599-0.198c1-0.012 1.609 0.78 1.621 1.78l1.303 108.792 59.996-0.718c1-0.012 1.807 0.578 1.819 1.578l0.177 14.799c0.012 1-0.781 1.61-1.781 1.622l-78.194 0.936c-1 0.012-1.607-0.581-1.619-1.581zm3.181-1.638 74.994-0.898-0.139-11.599-59.995 0.718c-1 0.012-1.607-0.58-1.619-1.58l-1.303-108.792-13.399 0.16z"/>
			<path d="m513.592 212.208c-0.757 4.537 2.365 8.911 6.902 9.669l77.132 12.879c4.538 0.757 8.912-2.365 9.669-6.902l2.438-14.598c0.757-4.537-2.365-8.911-6.902-9.669l-52.474-8.762 16.799-100.607c0.757-4.537-2.365-8.911-6.902-9.668l-16.374-2.734c-4.537-0.758-8.911 2.364-9.668 6.902zm11.639 1.943 20.62-123.49c0.164-0.986 0.888-1.677 1.874-1.512l16.374 2.734c0.986 0.165 1.446 1.052 1.281 2.039l-17.918 107.314 59.18 9.882c0.987 0.164 1.677 0.888 1.512 1.874l-2.437 14.598c-0.165 0.987-1.053 1.447-2.039 1.282l-77.132-12.879c-0.986-0.165-1.479-0.855-1.315-1.842zm3.42-1.051 73.976 12.352 1.91-11.442-59.18-9.881c-0.987-0.165-1.48-0.855-1.315-1.842l17.918-107.314-13.217-2.207z"/>
			<path d="m631.427 168.985c-4.424 11.37-6.281 23.309-5.238 35.519 0.898 12.582 5.421 23.57 12.906 33.565 7.557 9.809 17.507 17.329 29.995 22.189 11.556 4.497 23.195 6.021 35.177 4.46 12.241-1.674 23.26-6.829 33.059-15.463 9.208-8.221 16.501-18.688 21.505-31.549l0.435-1.118c4.933-12.674 6.82-25.246 5.704-37.269-1.084-12.655-5.534-23.829-13.092-33.638-7.63-9.622-17.466-16.883-29.767-21.67-18.825-7.326-36.388-6.864-53.176 0.982-16.343 7.804-29.094 22.371-37.508 43.992zm10.065 3.917c7.688-19.757 19.186-33.31 34.162-40.359 14.975-7.048 31.016-7.459 47.977-0.859 10.997 4.28 19.974 10.992 26.889 19.693 6.916 8.7 10.725 18.766 11.685 30.085 0.961 11.319-0.751 22.886-5.393 34.815-4.714 12.115-11.531 21.909-20.076 29.529-8.617 7.806-18.456 12.133-29.361 13.684-10.832 1.364-21.54 0.202-31.977-3.86-11.37-4.424-20.346-11.137-27.189-20.024-6.843-8.886-10.466-18.88-11.426-30.199-0.847-11.06 0.647-22.068 4.709-32.505zm3.168 1.233c-3.916 10.065-5.379 20.441-4.574 31.055 0.806 10.615 4.459 19.977 10.815 28.46 6.357 8.483 15.106 14.677 25.73 18.812 9.878 3.844 19.881 5.161 30.268 3.838 10.387-1.323 19.408-5.753 27.622-13.073 8.213-7.319 14.626-16.628 19.123-28.183 4.424-11.37 6.249-22.678 5.258-33.365-0.992-10.687-4.646-20.05-11.075-28.346-6.428-8.296-14.991-14.418-25.429-18.48-16.029-6.238-31.179-5.91-45.378 0.797-14.199 6.708-25.034 19.66-32.36 38.485zm12.602 5.118c7.035-18.079 16.141-29.344 27.388-33.981 11.247-4.636 22.576-4.52 33.945-0.095 8.015 3.118 14.372 7.739 19.3 14.378 4.928 6.639 7.598 14.116 8.052 22.877 0.526 8.575-1.32 17.728-5.091 27.42-6.02 15.47-14.463 26.135-25.555 31.476-11.164 5.527-22.825 5.711-34.94 0.996-11.928-4.642-19.952-12.7-24.516-24.134-4.565-11.434-4.241-24.399 1.417-38.937zm3.168 1.233c-5.294 13.606-5.774 25.867-1.551 36.524 4.223 10.657 11.719 17.866 22.715 22.146 11.183 4.352 21.839 3.992 32.155-1.008 10.387-5.186 18.467-14.918 24.125-29.456 3.626-9.319 5.068-17.987 4.583-26.116-0.558-7.943-2.741-15.016-7.255-21.065-4.514-6.049-10.312-10.451-17.767-13.352-10.438-4.062-20.948-4.075-31.419 0.22-10.47 4.296-18.985 15.146-25.586 32.107zm2.423 0.943 1.016-2.609c0.725-1.864 1.305-3.355 2.145-4.96l0.145-0.373c5.138-10.447 10.98-17.188 18.416-20.303 8.731-3.684 17.533-3.693 26.48-0.211 6.151 2.393 10.975 5.988 14.775 11.115 3.613 5.054 5.672 10.791 6.106 17.398 0.402 7.239-1.122 15.016-4.314 23.217-4.932 12.674-11.644 21.651-20.665 26.081-8.503 4.202-17.378 4.397-26.697 0.77-9.133-3.554-15.728-9.769-19.154-18.613-3.725-9.176-2.822-19.769 1.747-31.512z"/>
			<path d="m738.831 302.881c-0.901 1.322-1.307 2.982-1.435 4.589l-0.247 7.819c-0.03 2.885 1.33 5.506 3.644 7.083 0.991 0.676 2.208 1.021 3.26 1.254 7.308 1.352 13.64 0.585 19.326-2.074 5.13-2.555 10.169-7.107 14.675-13.717l10.027-14.708c2.591-3.8 1.644-8.803-2.157-11.394l-14.542-9.913c-3.801-2.591-8.969-1.757-11.56 2.043l-9.913 14.543c-2.366 3.47-1.802 7.969 1.165 10.718-1.059 0.488-2.502 0.474-3.831 0.293-2.381-0.413-4.717 0.174-6.73 1.706-0.616 0.548-1.232 1.097-1.682 1.758zm9.314 5.865c0.391-0.218 0.894-0.601 1.337-0.541 2.989 0.586 5.821 0.338 8.33-0.857 2.231-1.141 4.972-3.388 7.39-6.58l-5.784-3.943c-0.826-0.563-1.149-1.51-0.586-2.336l9.914-14.542c0.563-0.826 1.562-0.872 2.388-0.308l14.378 9.801c0.826 0.563 1.149 1.509 0.586 2.336l-9.914 14.542c-3.83 5.619-8.029 9.292-12.378 11.41-4.348 2.119-9.403 2.788-15.217 1.729-0.886-0.12-1.209-1.066-1.202-1.787l0.135-7.654c0.06-0.444 0.232-1.052 0.623-1.27zm2.742 3.08-0.158 4.491c4.432 0.601 8.097 0.195 11.665-1.488 3.958-1.9 7.601-5.469 10.981-10.426l8.899-13.055-11.733-7.999-7.998 11.733 5.784 3.943c0.33 0.226 0.661 0.451 0.766 1.007 0.105 0.555 0.045 0.999-0.18 1.329-3.32 4.515-6.512 7.422-9.524 8.999-2.621 1.36-5.287 1.721-8.502 1.466z"/>
			<path d="m45.433 458.958c0.379 0.705 0.568 1.058 1.123 1.668l88.767 94.662c2.585 2.698 6.634 3.475 9.982 1.676l14.8-7.95c3.347-1.799 5.112-5.698 4.289-9.343l-18.397-81.156 57.511 60.145c2.584 2.698 6.634 3.474 9.981 1.675l14.095-7.571c3.348-1.799 4.936-5.604 4.114-9.248l-28.946-126.573c-0.203-0.799-0.31-1.422-0.689-2.127-0.852-1.586-2.327-3.063-4.046-3.729-2.356-1.005-5.039-0.926-7.329 0.305l-14.623 7.855c-3.348 1.799-5.113 5.698-4.195 9.519l18.448 70.686c-1.759-2.007-3.789-4.095-5.724-6.006l-45.861-47.333c-2.584-2.698-6.539-3.298-9.886-1.5l-17.619 9.465c-3.348 1.798-5.031 5.427-4.208 9.071l16.507 74.68-49.617-56.439c-2.503-2.969-6.729-3.65-10.076-1.852l-14.976 8.045c-2.291 1.231-3.837 3.424-4.3 5.943-0.395 1.801 0.023 3.847 0.875 5.432zm10.585-5.231c-0.366-0.258-0.65-0.787-0.487-1.328 0.163-0.542 0.326-1.084 0.855-1.368l14.976-8.045c0.704-0.378 1.517-0.134 2.072 0.476l55.543 63.245c4.073 4.623 8.146 9.246 12.042 13.964-2.402-8.699-3.63-13.942-4.035-15.541l-19.07-85.79c-0.202-0.799 0.137-1.436 0.842-1.814l17.619-9.465c0.704-0.379 1.422-0.31 1.977 0.3l45.86 47.333c9.04 9.22 17.009 18.56 24.166 27.657-1.593-5.502-3.212-11.897-4.926-18.468l-20.606-80.197c-0.203-0.8 0.042-1.612 0.747-1.991l14.623-7.856c0.529-0.283 1.07-0.12 1.612 0.043 0.542 0.163 0.731 0.515 0.839 1.138l28.945 126.573c0.203 0.799-0.136 1.435-0.841 1.814l-14.095 7.572c-0.705 0.378-1.423 0.31-1.978-0.3l-68.403-71.548c-2.219-2.44-4.249-4.528-5.819-6.182 0.715 3.021 1.335 5.867 1.943 8.265l21.89 96.534c0.203 0.8-0.313 1.531-1.018 1.909l-14.799 7.951c-0.705 0.378-1.423 0.31-1.978-0.3zm3.915-0.742 86.101 92.236 12.686-6.815-21.499-95.383c-0.836-4.091-2.145-9.064-3.656-14.836-0.203-0.799 0.136-1.436 0.841-1.814 0.705-0.379 1.517-0.134 2.072 0.476 1.204 1.396 4.533 5.057 10.257 11.063l67.66 70.585 11.804-6.341-28.312-123.28-11.628 6.247 20.567 78.856c2.536 10.216 4.952 19.361 7.234 26.99 0.202 0.799-0.042 1.612-0.747 1.99-0.705 0.379-1.517 0.134-2.072-0.476-8.293-11.21-18.116-22.734-29.374-34.394l-44.94-46.465-15.505 8.329 18.855 84.544c0.417 2.046 2.428 9.592 5.951 22.911 0.202 0.8-0.219 1.707-0.923 2.085-0.705 0.379-1.518 0.134-2.072-0.476-5.209-6.737-10.864-13.461-16.696-20.091l-54.8-62.282z"/>
			<path d="m259.485 426.624c2.226 11.995 6.936 23.123 14.253 32.953 7.389 10.223 17.021 17.182 28.648 21.737 11.589 4.358 24.008 5.511 37.183 3.065 12.192-2.263 22.89-7.096 32.253-14.733 9.524-7.87 16.177-18.055 19.959-30.555 3.499-11.838 4.186-24.577 1.667-38.145l-0.219-1.18c-2.482-13.372-7.498-25.052-14.778-34.685-7.586-10.187-17.254-17.343-28.844-21.701-11.554-4.161-23.739-5.154-36.718-2.745-19.861 3.686-34.548 13.328-44.687 28.839-9.783 15.241-12.951 34.34-8.717 57.15zm10.618-1.971c-3.868-20.844-1.232-38.42 7.787-52.299 9.019-13.879 22.439-22.675 40.333-25.997 11.602-2.153 22.768-1.174 33.229 2.58 10.461 3.754 19 10.305 25.777 19.422 6.777 9.116 11.414 19.85 13.75 32.435 2.372 12.782 1.736 24.698-1.515 35.676-3.215 11.174-9.3 20.033-17.753 27.094-8.49 6.865-18.205 11.516-29.217 13.56-11.995 2.226-23.161 1.247-33.658-2.703-10.497-3.951-18.84-10.539-25.617-19.655-6.544-8.957-11.072-19.101-13.116-30.113zm3.343-0.62c1.971 10.619 6.192 20.209 12.467 28.809 6.275 8.599 14.311 14.634 24.182 18.497 9.871 3.864 20.57 4.522 31.779 2.442 10.422-1.935 19.619-6.083 27.752-12.678 8.133-6.595 13.469-15.111 16.596-25.659 3.128-10.548 3.677-21.838 1.414-34.03-2.226-11.995-6.63-22.569-13.101-31.131-6.471-8.563-14.508-14.598-24.342-18.265-9.834-3.667-20.338-4.362-31.349-2.318-16.912 3.139-29.618 11.396-38.156 24.576-8.539 13.179-10.928 29.896-7.242 49.757zm13.408-2.285c-3.54-19.075-1.732-33.446 5.387-43.311 7.119-9.864 16.811-15.732 28.807-17.958 8.455-1.57 16.293-0.99 23.978 2.059 7.685 3.048 13.893 7.999 18.892 15.207 4.963 7.012 8.215 15.766 10.113 25.991 3.03 16.321 1.469 29.833-5.147 40.215-6.58 10.578-16.396 16.875-29.178 19.248-12.585 2.336-23.649-0.289-33.551-7.605-9.901-7.316-16.454-18.508-19.301-33.846zm3.343-0.621c2.665 14.355 8.714 25.03 17.916 31.866 9.202 6.835 19.371 9.016 30.973 6.863 11.798-2.19 20.667-8.108 26.803-17.79 6.1-9.879 7.843-22.408 4.996-37.746-1.825-9.832-5.164-17.959-9.857-24.614-4.657-6.459-10.238-11.322-17.261-14.087-7.022-2.765-14.27-3.454-22.135-1.994-11.012 2.044-19.954 7.569-26.593 16.734-6.639 9.166-8.163 22.874-4.842 40.768zm2.557-0.474-0.511-2.753c-0.365-1.967-0.657-3.54-0.789-5.346l-0.073-0.393c-1.134-11.588 0.283-20.394 4.964-26.959 5.481-7.73 12.959-12.373 22.398-14.125 6.489-1.204 12.484-0.689 18.414 1.668 5.733 2.394 10.505 6.187 14.353 11.575 4.154 5.942 6.954 13.355 8.56 22.008 2.482 13.371 1.503 24.537-3.832 33.054-5.015 8.05-12.457 12.89-22.289 14.715-9.636 1.788-18.515-0.022-26.085-5.736-8-5.839-12.811-15.32-15.11-27.708z"/>
			<path d="m424.43 461.202c-0.232 4.595 3.371 8.582 7.965 8.814l16.579 0.838c4.594 0.233 8.382-3.381 8.614-7.975l2.383-47.14 15.381 0.778c1.198 0.061 2.197 0.111 2.986 0.351 1.578 0.481 3.125 1.56 4.673 2.64 1.936 1.299 3.823 3.597 6.068 6.715 2.804 3.946 6.517 9.741 10.747 17.164l15.066 26.795c1.477 2.478 4.193 4.217 6.989 4.359l20.773 1.05c2.997 0.152 5.884-1.505 7.413-4.031 0.66-1.168 1.13-2.546 1.201-3.944 0.081-1.598-0.248-3.016-0.976-4.455l-20.045-35.257c-3.502-5.985-7.245-11.18-11.028-15.577 5.714-2.114 10.46-4.878 14.247-8.491 7.575-7.227 11.645-16.433 12.211-27.619l0.02-0.4c0.424-8.389-1.389-16.09-5.231-23.293-4.02-7.613-9.77-12.71-17.209-16.09-6.46-2.93-15.977-4.813-28.361-5.439l-55.33-2.798c-4.594-0.232-8.581 3.371-8.813 7.965zm11.585 0.586 6.323-125.04c0.05-0.999 0.89-1.757 1.889-1.707l55.329 2.798c11.385 0.576 20.113 2.218 25.985 4.918 6.071 2.71 10.852 7.158 14.144 13.332 3.293 6.174 4.757 12.856 4.394 20.047-0.475 9.388-4.065 17.017-10.38 23.105-5.466 5.131-13.049 8.552-23.137 10.045 2.326 1.519 4.253 3.018 5.78 4.498 4.761 4.846 9.073 10.671 13.124 17.685l20.045 35.257c0.369 0.619 0.149 1.009-0.081 1.598-0.23 0.589-0.839 0.759-1.439 0.728l-20.773-1.05c-0.599-0.03-0.979-0.45-1.358-0.87l-15.266-26.805c-4.42-7.633-8.132-13.428-11.126-17.584-2.804-3.947-5.27-6.675-7.586-8.394-2.326-1.519-4.462-2.829-6.829-3.549-1.778-0.491-4.764-0.842-8.759-1.044l-17.577-0.889-2.727 53.931c-0.051 0.999-0.68 1.568-1.679 1.517l-16.579-0.838c-0.998-0.05-1.767-0.69-1.717-1.689zm3.477-1.426 13.183 0.667 2.727-53.931c0.05-0.999 0.88-1.558 1.879-1.508l19.175 0.97c4.394 0.222 7.58 0.584 9.557 1.084 2.767 0.741 5.303 2.07 7.808 3.999 2.516 1.73 5.371 4.678 8.355 9.034 2.994 4.156 6.896 10.161 11.306 17.994l14.697 26.175 16.978 0.859-18.579-32.58c-3.861-6.804-8.182-12.429-12.754-17.066-2.096-2.108-5.201-4.068-9.295-6.277-0.579-0.43-0.948-1.049-0.708-1.838 0.24-0.789 0.67-1.368 1.469-1.328 11.666-1.012 20.247-4.383 26.133-9.893 5.686-5.52 8.836-12.369 9.26-20.759 0.333-6.591-0.952-12.864-4.075-18.429-2.923-5.555-7.135-9.372-12.417-11.842-5.482-2.48-14.021-3.913-24.807-4.458l-53.731-2.717zm16.637-67.646 2.091-41.347c0.05-0.999 0.88-1.558 1.878-1.507l39.55 1.999c9.787 0.495 16.677 2.846 21.07 7.073 4.382 4.427 6.506 9.942 6.183 16.334-0.223 4.394-1.613 8.128-4.202 11.802-2.589 3.674-6.116 6.099-10.801 7.665-4.475 1.376-10.707 1.861-18.497 1.468l-35.555-1.798c-0.999-0.051-1.767-0.69-1.717-1.689zm3.477-1.426 33.956 1.717c7.391 0.373 13.014 0.057 17.289-1.329 4.066-1.196 6.984-3.452 9.143-6.547 2.159-3.095 3.519-6.23 3.711-10.025 0.272-5.393-1.493-10.088-5.316-13.686-3.813-3.797-10.114-5.918-18.903-6.363l-37.951-1.919zm1.941-6.711 1.242-24.568 31.36 1.585c6.792 0.344 11.545 1.385 14.6 4.343 2.285 2.318 3.342 5.175 3.171 8.571-0.121 2.397-0.832 4.564-2.331 6.491-1.299 1.936-3.368 3.234-5.805 3.911-3.666 1.217-8.48 1.374-14.872 1.051z"/>
			<path d="m569.276 471.823c-1.181 4.446 1.516 9.094 5.962 10.275l75.579 20.075c4.446 1.181 9.094-1.516 10.275-5.962l3.8-14.304c1.18-4.446-1.517-9.094-5.963-10.275l-51.417-13.657 26.185-98.582c1.181-4.446-1.516-9.094-5.962-10.275l-16.044-4.261c-4.445-1.181-9.094 1.516-10.274 5.962zm11.404 3.029 32.141-121.004c0.257-0.966 1.042-1.585 2.009-1.329l16.043 4.262c0.967 0.256 1.341 1.184 1.085 2.15l-27.931 105.154 57.989 15.403c0.967 0.257 1.586 1.042 1.329 2.008l-3.799 14.304c-0.257 0.967-1.184 1.341-2.151 1.085l-75.579-20.076c-0.966-0.256-1.392-0.99-1.136-1.957zm3.504-0.725 72.486 19.254 2.978-11.211-57.989-15.403c-0.966-0.257-1.392-0.991-1.136-1.957l27.931-105.154-12.951-3.44z"/>
			<path d="m678.382 500.77c-2.228 4.024-0.745 9.189 3.28 11.417l39.542 21.897c7.348 4.07 14.034 6.858 20.408 8.558 6.724 1.895 13.233 2.527 18.982 2.053 5.75-0.474 12.099-2.445 18.486-5.309 6.115-2.787 12.209-7.185 18.553-13.274 5.975-5.836 11.385-13.128 16.326-22.051l0.485-0.875c5.813-10.498 9.47-20.818 10.875-30.786 1.52-10.589 0.515-20.747-3.033-30.028-2.73-7.455-7.46-14.19-14.014-20.105-4.318-3.763-10.929-8.338-20.202-13.474l-37.618-20.831c-4.024-2.228-9.189-0.744-11.418 3.28zm9.448 5.232 60.653-109.528c0.484-0.875 1.571-1.187 2.446-0.703l37.618 20.831c8.748 4.844 15.009 9.226 18.977 12.795 5.601 5.159 9.747 10.884 12.165 17.253 3.139 8.368 4.103 17.361 2.717 26.881-1.288 9.346-4.733 18.869-10.256 28.842-4.65 8.398-9.963 15.515-15.473 20.923-5.606 5.583-11.234 9.554-16.806 12.184-5.571 2.63-11.008 4.192-16.039 4.606-5.031 0.415-10.821-0.276-16.748-1.958-5.927-1.682-12.088-4.179-18.912-7.958l-39.542-21.897c-0.875-0.484-1.284-1.397-0.8-2.271zm3.75 0.247 38.142 21.122c6.474 3.584 12.46 5.985 18.213 7.57 5.577 1.488 10.745 2.064 15.504 1.727 4.759-0.337 9.749-1.917 14.952-4.294 5.203-2.377 10.559-6.27 15.971-11.503 5.413-5.233 10.26-11.922 14.814-20.145 5.329-9.623 8.58-18.797 9.946-27.87 1.27-8.899 0.365-17.173-2.618-24.998-2.164-5.999-6.057-11.355-11.23-16.049-3.793-3.472-9.976-7.582-18.374-12.233l-36.218-20.056zm17.942-5.153 46.313-83.633c0.484-0.875 1.397-1.284 2.272-0.8l23.095 12.789c8.923 4.942 14.737 9.305 17.89 13.108 4.339 5.375 6.913 12.287 7.352 20.989 0.361 8.43-2.752 18.594-9.244 30.317-4.65 8.398-9.673 14.99-14.892 19.873-5.315 5.058-11.002 8.31-16.44 9.872-4.077 1.171-8.467 1.255-13.617 0.232-4.974-0.926-11.31-3.52-18.659-7.589l-23.445-12.983c-0.875-0.485-1.109-1.3-0.625-2.175zm3.75 0.247 21.87 12.111c6.999 3.876 12.985 6.276 17.688 7.28 4.527 0.907 8.742 0.726 12.277-0.289 5.165-1.483 10.036-4.501 15.061-9.034 5.025-4.533 9.776-11.047 14.233-19.096 6.201-11.197 9.198-20.739 8.818-28.723-0.302-7.712-2.622-14.255-6.63-18.989-3.075-3.531-8.636-7.526-17.034-12.176l-21.521-11.917zm5.394-4.786 38.27-69.111 15.747 8.72c7.349 4.069 12.482 7.598 15.128 10.663 3.152 3.804 4.636 8.969 4.916 15.068 0.243 6.993-2.524 15.292-7.949 25.09-4.07 7.348-8.258 13.259-12.914 17.539-4.094 3.677-8.053 6.286-12.402 7.535-2.719 0.781-5.672 0.746-8.956 0.071-4.177-0.713-9.445-3.173-15.744-6.661z"/>
		</g>
		<g fill="#0d7eff">
			<path d="m145.144 293.399c2.039 4.123 7.129 5.846 11.253 3.807l14.88-7.357c4.124-2.038 5.846-7.129 3.808-11.252l-22.514-45.539 43.387-21.45 22.514 45.539c2.039 4.123 7.129 5.845 11.253 3.807l14.701-7.268c4.124-2.039 5.846-7.13 3.807-11.253l-55.486-112.233c-2.039-4.124-7.129-5.846-11.253-3.808l-14.701 7.269c-4.124 2.038-5.846 7.129-3.808 11.252l19.057 38.547-43.387 21.45-19.057-38.547c-2.038-4.123-7.129-5.845-11.253-3.807l-14.88 7.357c-4.124 2.039-5.846 7.129-3.808 11.253zm4.482-2.216-55.486-112.233c-1.241-2.51-0.244-5.457 2.266-6.698l1.613-0.798c-2.51 1.241-3.507 4.188-2.266 6.698l55.487 112.233c1.241 2.51 4.188 3.507 6.698 2.267l-1.614 0.797c-2.51 1.241-5.457 0.244-6.698-2.266zm6.096-3.014-55.487-112.233c-0.443-0.896-0.26-1.879 0.637-2.322l14.881-7.357c0.896-0.443 1.788 0.008 2.232 0.904l22.07 44.642 55.4-27.388-22.071-44.643c-0.443-0.896-0.081-1.968 0.816-2.411l14.701-7.268c0.897-0.443 1.969-0.081 2.412 0.816l55.486 112.233c0.443 0.896-0.008 1.789-0.904 2.232l-14.702 7.268c-0.896 0.443-1.879 0.26-2.322-0.636l-25.439-51.456-55.4 27.389 25.439 51.455c0.443 0.897 0.171 1.701-0.725 2.144l-14.881 7.357c-0.896 0.443-1.7 0.171-2.143-0.726zm2.159-2.852 12.012-5.939-25.438-51.455c-0.443-0.896-0.26-1.879 0.636-2.323l58.448-28.895c0.896-0.443 1.788 0.008 2.232 0.904l25.438 51.456 11.833-5.851-54.068-109.364-11.833 5.85 22.071 44.642c0.443 0.897 0.171 1.7-0.726 2.144l-58.447 28.895c-0.896 0.443-1.7 0.171-2.143-0.725l-22.071-44.642-12.012 5.938zm0.107-3.846-51.055-103.269 5.917-2.925 20.564 41.595c1.24 2.51 4.188 3.507 6.698 2.266l58.268-28.807c2.51-1.241 3.507-4.188 2.266-6.698l-20.564-41.594 5.917-2.925 51.054 103.269-5.916 2.925-23.932-48.408c-1.241-2.51-4.188-3.507-6.698-2.266l-58.268 28.807c-2.51 1.241-3.507 4.188-2.266 6.698l23.932 48.407zm64.966-26.54-23.932-48.408 1.435-0.709 23.931 48.408c1.241 2.51 4.188 3.507 6.699 2.266l-1.435 0.709c-2.51 1.241-5.457 0.244-6.698-2.266zm-34.923-70.639-20.563-41.595c-1.241-2.51-0.244-5.457 2.266-6.698l1.434-0.709c-2.51 1.241-3.507 4.188-2.266 6.698l20.564 41.595z" style="fill:#0d7eff"/>
			<path d="m271.783 235.441c0.931 4.505 5.226 7.498 9.731 6.567l91.662-18.947c4.505-0.931 7.261-5.381 6.33-9.886l-2.996-14.494c-0.931-4.505-5.226-7.497-9.73-6.566l-67.18 13.886-5.223-25.266 59.737-12.348c4.505-0.931 7.261-5.381 6.33-9.885l-2.996-14.494c-0.931-4.505-5.185-7.302-9.69-6.37l-59.737 12.347-4.413-21.348 64.242-13.279c4.505-0.931 7.498-5.226 6.566-9.731l-2.995-14.494c-0.932-4.504-5.422-7.456-9.927-6.525l-88.724 18.339c-4.505 0.931-7.261 5.381-6.33 9.886zm4.897-1.012-25.344-122.608c-0.566-2.742 1.143-5.342 3.885-5.908l1.567-0.324c-2.742 0.566-4.452 3.166-3.885 5.908l25.344 122.608c0.566 2.742 3.166 4.452 5.908 3.885l-1.567 0.324c-2.742 0.566-5.341-1.143-5.908-3.885zm6.463-1.336-25.343-122.608c-0.203-0.979 0.223-1.884 1.202-2.086l88.725-18.34c0.979-0.202 1.728 0.46 1.931 1.439l2.996 14.493c0.202 0.98-0.264 1.689-1.243 1.891l-70.901 14.656 7.084 34.275 66.397-13.724c0.979-0.203 1.688 0.263 1.891 1.243l2.995 14.493c0.203 0.98-0.263 1.689-1.243 1.891l-66.396 13.724 7.975 38.585 73.84-15.263c0.979-0.202 1.688 0.264 1.89 1.243l2.996 14.494c0.203 0.979-0.264 1.688-1.243 1.89l-91.662 18.947c-0.979 0.203-1.688-0.263-1.891-1.243zm3.006-2.255 88.137-18.218-2.348-11.36-73.644 15.222c-0.979 0.203-1.688-0.263-1.89-1.243l-8.624-41.718c-0.202-0.979 0.264-1.688 1.243-1.89l66.201-13.684-2.308-11.164-66.2 13.684c-0.98 0.202-1.729-0.46-1.932-1.439l-7.732-37.409c-0.202-0.98 0.223-1.885 1.202-2.087l70.902-14.656-2.308-11.164-85.395 17.652zm0.878-3.653-23.319-112.815 78.932-16.316 0.971 4.701-67.571 13.967c-2.742 0.567-4.451 3.167-3.885 5.909l7.733 37.409c0.567 2.742 3.167 4.451 5.909 3.884l62.871-12.995 0.971 4.7-62.871 12.996c-2.742 0.567-4.451 3.166-3.884 5.908l8.623 41.719c0.567 2.742 3.167 4.451 5.909 3.884l70.313-14.534 0.972 4.701z" style="fill:#0d7eff"/>
			<path d="m399.037 211.981c0.055 4.599 3.9 8.354 8.5 8.299l78.194-0.937c4.6-0.055 8.354-3.9 8.299-8.5l-0.177-14.799c-0.055-4.6-3.9-8.354-8.5-8.299l-53.196 0.637-1.222-101.992c-0.055-4.6-3.9-8.354-8.5-8.299l-16.599 0.199c-4.599 0.055-8.354 3.9-8.298 8.5zm5-0.06-1.5-125.191c-0.033-2.8 2.14-5.026 4.94-5.06l1.8-0.021c-2.8 0.033-4.973 2.26-4.94 5.059l1.499 125.191c0.034 2.8 2.26 4.974 5.06 4.94l-1.8 0.022c-2.8 0.033-5.026-2.14-5.059-4.94zm6.799-0.082-1.499-125.191c-0.012-0.999 0.578-1.807 1.578-1.819l16.599-0.198c1-0.012 1.609 0.78 1.621 1.78l1.303 108.792 59.996-0.718c1-0.012 1.807 0.578 1.819 1.578l0.177 14.799c0.012 1-0.781 1.61-1.781 1.622l-78.194 0.936c-1 0.012-1.607-0.581-1.619-1.581zm3.181-1.638 74.994-0.898-0.139-11.599-59.995 0.718c-1 0.012-1.607-0.58-1.619-1.58l-1.303-108.792-13.399 0.16zm1.759-3.421-1.38-115.192 6.6-0.079 1.262 105.393c0.034 2.799 2.26 4.973 5.06 4.939l56.595-0.677 0.058 4.799z" style="fill:#0d7eff"/>
			<path d="m513.592 212.208c-0.757 4.537 2.365 8.911 6.902 9.669l77.132 12.879c4.538 0.757 8.912-2.365 9.669-6.902l2.438-14.598c0.757-4.537-2.365-8.911-6.902-9.669l-52.474-8.762 16.799-100.607c0.757-4.537-2.365-8.911-6.902-9.668l-16.374-2.734c-4.537-0.758-8.911 2.364-9.668 6.902zm4.932 0.823 20.619-123.49c0.462-2.762 2.994-4.569 5.756-4.108l1.775 0.296c-2.762-0.461-5.294 1.347-5.755 4.108l-20.62 123.491c-0.461 2.762 1.347 5.294 4.109 5.755l-1.776-0.296c-2.761-0.462-4.569-2.994-4.108-5.756zm6.707 1.12 20.62-123.49c0.164-0.986 0.888-1.677 1.874-1.512l16.374 2.734c0.986 0.165 1.446 1.052 1.281 2.039l-17.918 107.314 59.18 9.882c0.987 0.164 1.677 0.888 1.512 1.874l-2.437 14.598c-0.165 0.987-1.053 1.447-2.039 1.282l-77.132-12.879c-0.986-0.165-1.479-0.855-1.315-1.842zm3.42-1.051 73.976 12.352 1.91-11.442-59.18-9.881c-0.987-0.165-1.48-0.855-1.315-1.842l17.918-107.314-13.217-2.207zm2.335-3.057 18.973-113.627 6.51 1.087-17.359 103.961c-0.461 2.762 1.347 5.294 4.109 5.755l55.827 9.322-0.791 4.734z" style="fill:#0d7eff"/>
			<path d="m631.427 168.985c-4.424 11.37-6.281 23.309-5.238 35.519 0.898 12.582 5.421 23.57 12.906 33.565 7.557 9.809 17.507 17.329 29.995 22.189 11.556 4.497 23.195 6.021 35.177 4.46 12.241-1.674 23.26-6.829 33.059-15.463 9.208-8.221 16.501-18.688 21.505-31.549l0.435-1.118c4.933-12.674 6.82-25.246 5.704-37.269-1.084-12.655-5.534-23.829-13.092-33.638-7.63-9.622-17.466-16.883-29.767-21.67-18.825-7.326-36.388-6.864-53.176 0.982-16.343 7.804-29.094 22.371-37.508 43.992zm4.66 1.813c8.051-20.688 19.952-34.728 35.705-42.118 16.011-7.504 32.87-7.811 50.763-0.848l0.746 0.29c-17.593-6.632-34.079-6.18-49.832 1.211-15.752 7.39-27.84 21.357-35.891 42.046-4.28 10.996-5.846 22.19-4.844 33.955 0.929 11.95 4.779 22.462 12.036 31.939 6.957 9.146 16.234 16.189 27.717 20.873l-0.745-0.29c-11.929-4.642-21.392-11.759-28.463-21.163-7.257-9.477-11.293-20.062-12.223-32.012-1.001-11.764 0.751-22.886 5.031-33.883zm5.405 2.104c7.688-19.757 19.186-33.31 34.162-40.359 14.975-7.048 31.016-7.459 47.977-0.859 10.997 4.28 19.974 10.992 26.889 19.693 6.916 8.7 10.725 18.766 11.685 30.085 0.961 11.319-0.751 22.886-5.393 34.815-4.714 12.115-11.531 21.909-20.076 29.529-8.617 7.806-18.456 12.133-29.361 13.684-10.832 1.364-21.54 0.202-31.977-3.86-11.37-4.424-20.346-11.137-27.189-20.024-6.843-8.886-10.466-18.88-11.426-30.199-0.847-11.06 0.647-22.068 4.709-32.505zm3.168 1.233c-3.916 10.065-5.379 20.441-4.574 31.055 0.806 10.615 4.459 19.977 10.815 28.46 6.357 8.483 15.106 14.677 25.73 18.812 9.878 3.844 19.881 5.161 30.268 3.838 10.387-1.323 19.408-5.753 27.622-13.073 8.213-7.319 14.626-16.628 19.123-28.183 4.424-11.37 6.249-22.678 5.258-33.365-0.992-10.687-4.646-20.05-11.075-28.346-6.428-8.296-14.991-14.418-25.429-18.48-16.029-6.238-31.179-5.91-45.378 0.797-14.199 6.708-25.034 19.66-32.36 38.485zm2.237 0.87c7.035-18.079 17.135-30.245 30.816-36.724 13.422-6.366 27.61-6.425 42.707-0.55 9.878 3.845 17.954 9.563 24.155 17.341 6.015 7.706 9.368 16.737 10.205 26.72 0.95 10.242-0.771 20.732-5.05 31.728-4.28 10.997-10.361 20.005-18.243 27.024-7.551 6.719-16.053 10.922-25.736 12.09-9.755 1.354-19.386 0.182-28.705-3.445-10.065-3.916-18.068-9.821-24.197-17.786-5.942-7.892-9.296-16.923-10.132-26.906-0.764-10.169 0.481-19.986 4.18-29.492zm6.637 2.798c-6.02 15.47-6.634 29.18-1.728 41.391 4.833 12.396 13.716 21.004 26.577 26.009 13.047 5.077 25.67 4.624 37.611-1.245 11.683-5.755 20.902-16.761 27.285-33.163 3.989-10.251 5.793-19.85 5.225-28.87-0.422-9.393-3.506-17.46-8.662-24.617-5.228-6.971-12.372-12.326-20.945-15.663-12.115-4.714-24.149-4.675-36.173 0.303-11.765 4.864-21.719 16.657-29.19 35.855zm3.728 1.45c7.035-18.079 16.141-29.344 27.388-33.981 11.247-4.636 22.576-4.52 33.945-0.095 8.015 3.118 14.372 7.739 19.3 14.378 4.928 6.639 7.598 14.116 8.052 22.877 0.526 8.575-1.32 17.728-5.091 27.42-6.02 15.47-14.463 26.135-25.555 31.476-11.164 5.527-22.825 5.711-34.94 0.996-11.928-4.642-19.952-12.7-24.516-24.134-4.565-11.434-4.241-24.399 1.417-38.937zm3.168 1.233c-5.294 13.606-5.774 25.867-1.551 36.524 4.223 10.657 11.719 17.866 22.715 22.146 11.183 4.352 21.839 3.992 32.155-1.008 10.387-5.186 18.467-14.918 24.125-29.456 3.626-9.319 5.068-17.987 4.583-26.116-0.558-7.943-2.741-15.016-7.255-21.065-4.514-6.049-10.312-10.451-17.767-13.352-10.438-4.062-20.948-4.075-31.419 0.22-10.47 4.296-18.985 15.146-25.586 32.107zm2.423 0.943 1.016-2.609c0.725-1.864 1.305-3.355 2.145-4.96l0.145-0.373c5.138-10.447 10.98-17.188 18.416-20.303 8.731-3.684 17.533-3.693 26.48-0.211 6.151 2.393 10.975 5.988 14.775 11.115 3.613 5.054 5.672 10.791 6.106 17.398 0.402 7.239-1.122 15.016-4.314 23.217-4.932 12.674-11.644 21.651-20.665 26.081-8.503 4.202-17.378 4.397-26.697 0.77-9.133-3.554-15.728-9.769-19.154-18.613-3.725-9.176-2.822-19.769 1.747-31.512zm18.411 54.164c9.951 3.658 19.343 3.236 28.623-1.308 9.797-4.772 17.1-14.163 22.395-27.769 3.409-8.76 5.078-16.91 4.635-24.594-0.403-7.238-2.545-13.866-6.644-19.325-3.914-5.385-9.298-9.197-15.749-11.922l0.746 0.29c6.71 2.611 12.394 6.754 16.494 12.213 4.099 5.458 6.241 12.086 6.644 19.325 0.443 7.684-1.04 15.906-4.449 24.666-5.294 13.606-12.597 22.997-22.395 27.768-9.352 4.731-19.304 4.936-29.555 0.946z" style="fill:#0d7eff"/>
			<path d="m738.831 302.881c-0.901 1.322-1.307 2.982-1.435 4.589l-0.247 7.819c-0.03 2.885 1.33 5.506 3.644 7.083 0.991 0.676 2.208 1.021 3.26 1.254 7.308 1.352 13.64 0.585 19.326-2.074 5.13-2.555 10.169-7.107 14.675-13.717l10.027-14.708c2.591-3.8 1.644-8.803-2.157-11.394l-14.542-9.913c-3.801-2.591-8.969-1.757-11.56 2.043l-9.913 14.543c-2.366 3.47-1.802 7.969 1.165 10.718-1.059 0.488-2.502 0.474-3.831 0.293-2.381-0.413-4.717 0.174-6.73 1.706-0.616 0.548-1.232 1.097-1.682 1.758zm5.085 1.772c1.119-0.932 2.621-1.36 4.116-1.067 2.381 0.413 4.492 0.157 6.332-0.767 1.172-0.653 2.291-1.585 3.635-2.847l1.487 1.014c-1.344 1.262-2.463 2.194-3.635 2.847-1.84 0.924-4.116 1.067-6.497 0.654-1.495-0.293-2.832 0.248-3.951 1.18-1.119 0.931-2.02 2.253-2.035 3.695l-0.082 7.932c-0.015 1.442 0.526 2.779 1.57 3.733-1.878-0.796-2.914-2.471-2.892-4.634l0.082-7.932c0.015-1.442 0.751-2.877 1.87-3.808zm10.124-13.431 9.914-14.542c1.577-2.314 4.634-2.892 6.947-1.315l1.488 1.014c-2.314-1.577-5.371-0.999-6.948 1.315l-9.914 14.542c-1.577 2.314-0.998 5.371 1.315 6.948l-1.487-1.014c-2.314-1.577-2.892-4.634-1.315-6.948zm-5.895 17.524c0.391-0.218 0.894-0.601 1.337-0.541 2.989 0.586 5.821 0.338 8.33-0.857 2.231-1.141 4.972-3.388 7.39-6.58l-5.784-3.943c-0.826-0.563-1.149-1.51-0.586-2.336l9.914-14.542c0.563-0.826 1.562-0.872 2.388-0.308l14.378 9.801c0.826 0.563 1.149 1.509 0.586 2.336l-9.914 14.542c-3.83 5.619-8.029 9.292-12.378 11.41-4.348 2.119-9.403 2.788-15.217 1.729-0.886-0.12-1.209-1.066-1.202-1.787l0.135-7.654c0.06-0.444 0.232-1.052 0.623-1.27zm2.742 3.08-0.158 4.491c4.432 0.601 8.097 0.195 11.665-1.488 3.958-1.9 7.601-5.469 10.981-10.426l8.899-13.055-11.733-7.999-7.998 11.733 5.784 3.943c0.33 0.226 0.661 0.451 0.766 1.007 0.105 0.555 0.045 0.999-0.18 1.329-3.32 4.515-6.512 7.422-9.524 8.999-2.621 1.36-5.287 1.721-8.502 1.466zm15.719-18.089 4.281-6.279 6.115 4.168-5.295 7.767-0.053-0.278c-0.263-1.389-0.916-2.561-2.073-3.35z" style="fill:#0d7eff"/>
			<path d="m45.433 458.958c0.379 0.705 0.568 1.058 1.123 1.668l88.767 94.662c2.585 2.698 6.634 3.475 9.982 1.676l14.8-7.95c3.347-1.799 5.112-5.698 4.289-9.343l-18.397-81.156 57.511 60.145c2.584 2.698 6.634 3.474 9.981 1.675l14.095-7.571c3.348-1.799 4.936-5.604 4.114-9.248l-28.946-126.573c-0.203-0.799-0.31-1.422-0.689-2.127-0.852-1.586-2.327-3.063-4.046-3.729-2.356-1.005-5.039-0.926-7.329 0.305l-14.623 7.855c-3.348 1.799-5.113 5.698-4.195 9.519l18.448 70.686c-1.759-2.007-3.789-4.095-5.724-6.006l-45.861-47.333c-2.584-2.698-6.539-3.298-9.886-1.5l-17.619 9.465c-3.348 1.798-5.031 5.427-4.208 9.071l16.507 74.68-49.617-56.439c-2.503-2.969-6.729-3.65-10.076-1.852l-14.976 8.045c-2.291 1.231-3.837 3.424-4.3 5.943-0.395 1.801 0.023 3.847 0.875 5.432zm5.149-1.403c-1.11-1.221-1.691-2.725-1.378-4.255 0.313-1.53 1.263-2.722 2.672-3.479l1.41-0.757c-1.41 0.757-2.183 1.854-2.496 3.384-0.313 1.53 0.092 3.129 1.201 4.349l88.497 94.582c1.57 1.654 4.265 2.022 6.203 0.981l-1.585 0.852c-1.939 1.041-4.458 0.578-6.027-1.076zm4.555-3.355c-0.366-0.258-0.474-0.881-0.311-1.423 0.164-0.542 0.15-0.989 0.679-1.272l15.152-8.14c0.705-0.379 1.517-0.134 2.072 0.476l55.544 63.245c4.072 4.623 7.969 9.341 11.865 14.058-2.402-8.698-3.63-13.942-4.035-15.541l-18.893-85.884c-0.203-0.8 0.136-1.436 0.841-1.815l17.619-9.464c0.705-0.379 1.422-0.311 1.977 0.3l45.684 47.427c9.04 9.22 17.185 18.466 24.342 27.562-1.593-5.501-3.212-11.896-4.926-18.467l-20.782-80.103c-0.203-0.799 0.218-1.707 0.923-2.085l14.623-7.856c0.529-0.284 0.894-0.026 1.436 0.137 0.542 0.163 0.907 0.421 1.015 1.044l28.946 126.572c0.202 0.8-0.137 1.436-0.842 1.815l-14.095 7.571c-0.705 0.379-1.422 0.311-1.977-0.3l-68.404-71.547c-2.219-2.44-4.249-4.528-5.819-6.182 0.715 3.021 1.336 5.866 1.943 8.264l21.714 96.63c0.203 0.799-0.137 1.435-0.841 1.814l-14.8 7.95c-0.705 0.379-1.423 0.31-1.977-0.3zm3.915-0.741 86.278 92.14 12.685-6.814-21.499-95.383c-0.836-4.092-2.321-8.97-3.832-14.742-0.203-0.799 0.313-1.53 1.017-1.909 0.705-0.378 1.518-0.134 2.072 0.477 1.205 1.396 4.533 5.057 10.257 11.063l67.66 70.585 11.805-6.342-28.313-123.28-11.628 6.247 20.391 78.951c2.536 10.216 5.128 19.267 7.41 26.895 0.202 0.8-0.042 1.612-0.747 1.991-0.705 0.378-1.517 0.134-2.072-0.476-8.293-11.211-18.292-22.639-29.55-34.3l-44.94-46.465-15.329 8.235 18.855 84.543c0.418 2.046 2.252 9.688 5.775 23.007 0.202 0.799-0.042 1.611-0.747 1.99-0.705 0.379-1.517 0.134-2.072-0.476-5.209-6.737-10.864-13.462-16.696-20.091l-54.799-62.283zm4.78 1.291 5.638-3.029 53.041 60.276c5.832 6.63 11.392 13.178 16.601 19.915 1.488 1.925 4.007 2.388 6.121 1.252l0.177-0.094c2.114-1.136 2.942-3.397 2.43-5.619-3.428-13.143-5.534-20.866-5.952-22.912l-18.152-81.969 11.1-5.963 43.099 44.729c11.164 11.484 20.892 22.832 29.09 33.866 1.489 1.925 4.102 2.564 6.216 1.428l0.177-0.095c2.114-1.135 3.119-3.491 2.335-5.795-2.282-7.628-4.779-16.503-7.316-26.719l-19.688-76.377 5.461-2.934s21.973 96.264 26.68 116.438l-7.399 3.976-65.82-68.85c-5.629-5.83-8.958-9.491-10.162-10.887-1.57-1.654-4.183-2.293-6.298-1.157-2.114 1.135-2.848 3.573-2.335 5.795 1.593 5.501 2.807 10.297 3.643 14.389l20.892 92.985-8.105 4.353zm66.46 51.024-18.57-84.015c-0.513-2.222 0.586-4.402 2.524-5.443l1.586-0.852c-1.938 1.041-3.213 3.316-2.701 5.538l19.07 85.79c0.189 0.352 0.202 0.799 0.31 1.422-0.649-0.786-1.569-1.654-2.219-2.44zm13.547-56.771-0.715-3.021 65.819 68.849c1.57 1.654 3.994 1.941 5.932 0.9l-1.409 0.757c-1.938 1.041-4.363 0.755-5.932-0.899zm53.515 18.475 0.081-0.271-20.782-80.103c-0.513-2.222 0.316-4.483 2.43-5.619l1.41-0.757c-2.115 1.136-2.943 3.397-2.431 5.619l20.783 80.103c0.215 1.246 0.702 2.574 0.917 3.821-0.744-0.963-1.664-1.831-2.408-2.793z"/>
			<path d="m259.485 426.624c2.226 11.995 6.936 23.123 14.253 32.953 7.389 10.223 17.021 17.182 28.648 21.737 11.589 4.358 24.008 5.511 37.183 3.065 12.192-2.263 22.89-7.096 32.253-14.733 9.524-7.87 16.177-18.055 19.959-30.555 3.499-11.838 4.186-24.577 1.667-38.145l-0.219-1.18c-2.482-13.372-7.498-25.052-14.778-34.685-7.586-10.187-17.254-17.343-28.844-21.701-11.554-4.161-23.739-5.154-36.718-2.745-19.861 3.686-34.548 13.328-44.687 28.839-9.783 15.241-12.951 34.34-8.717 57.15zm4.916-0.912c-4.051-21.827-1.328-40.03 8.172-54.608 9.659-14.812 23.829-23.951 42.706-27.455l0.787-0.146c-18.448 3.627-32.225 12.694-41.724 27.272-9.499 14.578-12.419 32.818-8.368 54.645 2.153 11.602 6.717 21.942 13.764 31.416 7.084 9.669 15.892 16.578 27.053 20.812 10.73 4.111 22.326 5.213 34.554 3.147l-0.786 0.146c-12.586 2.336-24.378 1.27-35.342-3.001-11.16-4.234-20.165-11.106-27.249-20.776-7.047-9.473-11.414-19.85-13.567-31.452zm5.702-1.059c-3.868-20.844-1.232-38.42 7.787-52.299 9.019-13.879 22.439-22.675 40.333-25.997 11.602-2.153 22.768-1.174 33.229 2.58 10.461 3.754 19 10.305 25.777 19.422 6.777 9.116 11.414 19.85 13.75 32.435 2.372 12.782 1.736 24.698-1.515 35.676-3.215 11.174-9.3 20.033-17.753 27.094-8.49 6.865-18.205 11.516-29.217 13.56-11.995 2.226-23.161 1.247-33.658-2.703-10.497-3.951-18.84-10.539-25.617-19.655-6.544-8.957-11.072-19.101-13.116-30.113zm3.343-0.62c1.971 10.619 6.192 20.209 12.467 28.809 6.275 8.599 14.311 14.634 24.182 18.497 9.871 3.864 20.57 4.522 31.779 2.442 10.422-1.935 19.619-6.083 27.752-12.678 8.133-6.595 13.469-15.111 16.596-25.659 3.128-10.548 3.677-21.838 1.414-34.03-2.226-11.995-6.63-22.569-13.101-31.131-6.471-8.563-14.508-14.598-24.342-18.265-9.834-3.667-20.338-4.362-31.349-2.318-16.912 3.139-29.618 11.396-38.156 24.576-8.539 13.179-10.928 29.896-7.242 49.757zm2.36-0.438c-3.54-19.074-1.362-34.735 6.856-47.448 8.058-12.48 20.088-20.002 36.015-22.958 10.422-1.934 20.299-1.327 29.667 2.02 9.172 3.383 16.778 9.294 22.747 17.34 6.201 8.206 10.262 18.03 12.416 29.632 2.153 11.602 1.728 22.462-1.276 32.58-2.881 9.688-7.896 17.739-15.512 23.831-7.579 6.289-16.384 10.364-26.216 12.189-10.618 1.97-20.532 1.166-29.936-2.377-9.208-3.58-16.814-9.491-22.783-17.537-6.005-8.243-10.117-17.243-11.978-27.272zm7.116-1.117c3.029 16.321 9.727 28.3 20.328 36.096 10.638 7.993 22.722 10.632 36.29 8.114 13.765-2.555 24.258-9.588 31.318-20.866 6.901-11.045 8.942-25.256 5.73-42.56-2.008-10.816-5.529-19.926-10.762-27.295-5.306-7.762-12.176-12.996-20.328-16.365-8.115-3.172-17.009-3.962-26.054-2.284-12.782 2.373-22.991 8.743-30.59 19.307-7.44 10.331-9.692 25.599-5.932 45.853zm3.932-0.73c-3.54-19.075-1.732-33.446 5.387-43.311 7.119-9.864 16.811-15.732 28.807-17.958 8.455-1.57 16.293-0.99 23.978 2.059 7.685 3.048 13.893 7.999 18.892 15.207 4.963 7.012 8.215 15.766 10.113 25.991 3.03 16.321 1.469 29.833-5.147 40.215-6.58 10.578-16.396 16.875-29.178 19.248-12.585 2.336-23.649-0.289-33.551-7.605-9.901-7.316-16.454-18.508-19.301-33.846zm3.343-0.621c2.665 14.355 8.714 25.03 17.916 31.866 9.202 6.835 19.371 9.016 30.973 6.863 11.798-2.19 20.667-8.108 26.803-17.79 6.1-9.879 7.843-22.408 4.996-37.746-1.825-9.832-5.164-17.959-9.857-24.614-4.657-6.459-10.238-11.322-17.261-14.087-7.022-2.765-14.27-3.454-22.135-1.994-11.012 2.044-19.954 7.569-26.593 16.734-6.639 9.166-8.163 22.874-4.842 40.768zm2.557-0.474-0.511-2.753c-0.365-1.967-0.657-3.54-0.789-5.346l-0.073-0.393c-1.134-11.588 0.283-20.394 4.964-26.959 5.481-7.73 12.959-12.373 22.398-14.125 6.489-1.204 12.484-0.689 18.414 1.668 5.733 2.394 10.505 6.187 14.353 11.575 4.154 5.942 6.954 13.355 8.56 22.008 2.482 13.371 1.503 24.537-3.832 33.054-5.015 8.05-12.457 12.89-22.289 14.715-9.636 1.788-18.515-0.022-26.085-5.736-8-5.839-12.811-15.32-15.11-27.708zm44.175 36.349c10.385-2.132 18.147-7.437 23.643-16.187 5.816-9.216 7.078-21.045 4.414-35.4-1.716-9.242-4.588-17.049-9.012-23.347-4.154-5.942-9.466-10.448-15.825-12.929-6.163-2.518-12.748-2.923-19.667-1.842l0.787-0.146c7.079-1.314 14.093-0.786 20.453 1.696 6.359 2.481 11.671 6.987 15.825 12.929 4.424 6.298 7.493 14.068 9.209 23.311 2.664 14.354 1.402 26.183-4.414 35.4-5.459 8.946-13.811 14.361-24.627 16.369z" style="fill:#0d7eff"/>
			<path d="m424.43 461.202c-0.232 4.595 3.371 8.582 7.965 8.814l16.579 0.838c4.594 0.233 8.382-3.381 8.614-7.975l2.383-47.14 15.381 0.778c1.198 0.061 2.197 0.111 2.986 0.351 1.578 0.481 3.125 1.56 4.673 2.64 1.936 1.299 3.823 3.597 6.068 6.715 2.804 3.946 6.517 9.741 10.747 17.164l15.066 26.795c1.477 2.478 4.193 4.217 6.989 4.359l20.773 1.05c2.997 0.152 5.884-1.505 7.413-4.031 0.66-1.168 1.13-2.546 1.201-3.944 0.081-1.598-0.248-3.016-0.976-4.455l-20.045-35.257c-3.502-5.985-7.245-11.18-11.028-15.577 5.714-2.114 10.46-4.878 14.247-8.491 7.575-7.227 11.645-16.433 12.211-27.619l0.02-0.4c0.424-8.389-1.389-16.09-5.231-23.293-4.02-7.613-9.77-12.71-17.209-16.09-6.46-2.93-15.977-4.813-28.361-5.439l-55.33-2.798c-4.594-0.232-8.581 3.371-8.813 7.965zm4.994 0.253 6.322-125.04c0.142-2.797 2.45-4.883 5.246-4.741l1.598 0.08c-2.796-0.141-5.104 1.945-5.246 4.742l-6.322 125.04c-0.142 2.796 1.944 5.105 4.741 5.246l-1.598-0.081c-2.796-0.141-4.883-2.45-4.741-5.246zm6.591 0.333 6.323-125.04c0.05-0.999 0.89-1.757 1.889-1.707l55.329 2.798c11.385 0.576 20.113 2.218 25.985 4.918 6.071 2.71 10.852 7.158 14.144 13.332 3.293 6.174 4.757 12.856 4.394 20.047-0.475 9.388-4.065 17.017-10.38 23.105-5.466 5.131-13.049 8.552-23.137 10.045 2.326 1.519 4.253 3.018 5.78 4.498 4.761 4.846 9.073 10.671 13.124 17.685l20.045 35.257c0.369 0.619 0.149 1.009-0.081 1.598-0.23 0.589-0.839 0.759-1.439 0.728l-20.773-1.05c-0.599-0.03-0.979-0.45-1.358-0.87l-15.266-26.805c-4.42-7.633-8.132-13.428-11.126-17.584-2.804-3.947-5.27-6.675-7.586-8.394-2.326-1.519-4.462-2.829-6.829-3.549-1.778-0.491-4.764-0.842-8.759-1.044l-17.577-0.889-2.727 53.931c-0.051 0.999-0.68 1.568-1.679 1.517l-16.579-0.838c-0.998-0.05-1.767-0.69-1.717-1.689zm3.477-1.426 13.183 0.667 2.727-53.931c0.05-0.999 0.88-1.558 1.879-1.508l19.175 0.97c4.394 0.222 7.58 0.584 9.557 1.084 2.767 0.741 5.303 2.07 7.808 3.999 2.516 1.73 5.371 4.678 8.355 9.034 2.994 4.156 6.896 10.161 11.306 17.994l14.697 26.175 16.978 0.859-18.579-32.58c-3.861-6.804-8.182-12.429-12.754-17.066-2.096-2.108-5.201-4.068-9.295-6.277-0.579-0.43-0.948-1.049-0.708-1.838 0.24-0.789 0.67-1.368 1.469-1.328 11.666-1.012 20.247-4.383 26.133-9.893 5.686-5.52 8.836-12.369 9.26-20.759 0.333-6.591-0.952-12.864-4.075-18.429-2.923-5.555-7.135-9.372-12.417-11.842-5.482-2.48-14.021-3.913-24.807-4.458l-53.731-2.717zm1.77-3.315 5.817-115.053 50.536 2.555c10.386 0.526 18.126 1.918 23.418 4.188 4.703 2.04 8.526 5.638 11.09 10.374 2.744 5.145 3.869 10.609 3.566 16.601-0.383 7.59-3.093 13.661-8.15 18.612-5.266 5.141-13.617 7.923-24.275 8.785-2.417 0.279-4.315 2.185-4.447 4.782-0.091 1.798 0.807 3.846 2.564 4.736 3.705 1.989 6.61 3.938 8.517 5.837 4.382 4.427 8.314 9.832 11.995 16.227l15.646 27.224-8.989-0.454-13.979-24.537c-4.61-7.843-8.301-14.038-11.295-18.194-3.363-4.776-6.398-8.133-9.103-10.073-2.895-2.149-5.841-3.299-8.797-4.249l-0.19-0.21c-1.977-0.501-5.562-0.882-10.356-1.125l-19.176-0.969c-2.796-0.141-5.104 1.945-5.246 4.741l-2.555 50.535zm9.874-64.584c-0.142 2.797 1.944 5.105 4.741 5.247l35.754 1.807c8.389 0.425 14.822-0.051 19.507-1.617 5.494-1.724 9.65-4.718 12.669-8.971 3.008-4.053 4.639-8.577 4.891-13.571 0.374-7.39-2.109-13.724-7.26-18.79-4.771-4.647-12.43-7.638-23.216-8.183l-39.75-2.01c-2.796-0.141-5.104 1.945-5.246 4.741zm4.993 0.253 2.091-41.347c0.05-0.999 0.88-1.558 1.878-1.507l39.55 1.999c9.787 0.495 16.677 2.846 21.07 7.073 4.382 4.427 6.506 9.942 6.183 16.334-0.223 4.394-1.613 8.128-4.202 11.802-2.589 3.674-6.116 6.099-10.801 7.665-4.475 1.376-10.707 1.861-18.497 1.468l-35.555-1.798c-0.999-0.051-1.767-0.69-1.717-1.689zm3.477-1.426 33.956 1.717c7.391 0.373 13.014 0.057 17.289-1.329 4.066-1.196 6.984-3.452 9.143-6.547 2.159-3.095 3.519-6.23 3.711-10.025 0.272-5.393-1.493-10.088-5.316-13.686-3.813-3.797-10.114-5.918-18.903-6.363l-37.951-1.919zm1.941-6.711 1.242-24.568 31.36 1.585c6.792 0.344 11.545 1.385 14.6 4.343 2.285 2.318 3.342 5.175 3.171 8.571-0.121 2.397-0.832 4.564-2.331 6.491-1.299 1.936-3.368 3.234-5.805 3.911-3.666 1.217-8.48 1.374-14.872 1.051zm11.18 28.401 1.598 0.081c3.795 0.192 6.592 0.333 8.169 0.813 1.967 0.701 3.914 1.8 5.851 3.1 2.127 1.509 4.403 4.027 6.827 7.554 2.805 3.947 6.317 9.732 10.737 17.365l15.266 26.805c0.928 1.448 2.276 2.518 4.074 2.609l-1.598-0.081c-1.798-0.091-3.146-1.16-4.074-2.609l-15.266-26.805c-4.42-7.633-7.932-13.418-10.736-17.365-2.425-3.527-4.701-6.045-6.828-7.554-1.937-1.3-3.883-2.399-5.851-3.099-1.577-0.481-4.374-0.622-8.169-0.814zm17.611-23.541c6.792 0.344 12.215 0.017 16.081-1.189 3.256-1.037 5.944-2.703 7.673-5.219 1.729-2.516 2.67-5.272 2.821-8.268 0.223-4.395-0.984-8.261-4.038-11.219-3.434-3.377-9.166-4.869-16.956-5.263l1.798 0.091c7.79 0.394 13.322 1.875 16.756 5.253 3.054 2.958 4.46 6.834 4.238 11.228-0.151 2.997-1.292 5.743-3.021 8.258-1.729 2.516-4.217 4.193-7.473 5.23-3.866 1.206-9.29 1.533-16.081 1.189z" style="fill:#0d7eff"/>
			<path d="m569.276 471.823c-1.181 4.446 1.516 9.094 5.962 10.275l75.579 20.075c4.446 1.181 9.094-1.516 10.275-5.962l3.8-14.304c1.18-4.446-1.517-9.094-5.963-10.275l-51.417-13.657 26.185-98.582c1.181-4.446-1.516-9.094-5.962-10.275l-16.044-4.261c-4.445-1.181-9.094 1.516-10.274 5.962zm4.832 1.284 32.141-121.004c0.719-2.707 3.41-4.268 6.116-3.549l1.74 0.462c-2.706-0.719-5.398 0.842-6.116 3.549l-32.141 121.004c-0.719 2.706 0.843 5.397 3.549 6.116l-1.74-0.462c-2.706-0.719-4.268-3.41-3.549-6.116zm6.572 1.745 32.141-121.004c0.257-0.966 1.042-1.585 2.009-1.329l16.043 4.262c0.967 0.256 1.341 1.184 1.085 2.15l-27.931 105.154 57.989 15.403c0.967 0.257 1.586 1.042 1.329 2.008l-3.799 14.304c-0.257 0.967-1.184 1.341-2.151 1.085l-75.579-20.076c-0.966-0.256-1.392-0.99-1.136-1.957zm3.504-0.725 72.486 19.254 2.978-11.211-57.989-15.403c-0.966-0.257-1.392-0.991-1.136-1.957l27.931-105.154-12.951-3.44zm2.612-2.823 29.574-111.34 6.379 1.695-27.058 101.867c-0.719 2.706 0.843 5.397 3.549 6.116l54.703 14.53-1.232 4.639z" style="fill:#0d7eff"/>
			<path d="m678.382 500.77c-2.228 4.024-0.745 9.189 3.28 11.417l39.542 21.897c7.348 4.07 14.034 6.858 20.408 8.558 6.724 1.895 13.233 2.527 18.982 2.053 5.75-0.474 12.099-2.445 18.486-5.309 6.115-2.787 12.209-7.185 18.553-13.274 5.975-5.836 11.385-13.128 16.326-22.051l0.485-0.875c5.813-10.498 9.47-20.818 10.875-30.786 1.52-10.589 0.515-20.747-3.033-30.028-2.73-7.455-7.46-14.19-14.014-20.105-4.318-3.763-10.929-8.338-20.202-13.474l-37.618-20.831c-4.024-2.228-9.189-0.744-11.418 3.28zm4.375 2.422 60.652-109.528c1.356-2.45 4.346-3.308 6.796-1.952l1.4 0.775c-2.45-1.356-5.44-0.497-6.797 1.952l-60.652 109.528c-1.356 2.449-0.497 5.44 1.952 6.796l-1.4-0.775c-2.449-1.356-3.308-4.347-1.951-6.796zm5.073 2.81 60.653-109.528c0.484-0.875 1.571-1.187 2.446-0.703l37.618 20.831c8.748 4.844 15.009 9.226 18.977 12.795 5.601 5.159 9.747 10.884 12.165 17.253 3.139 8.368 4.103 17.361 2.717 26.881-1.288 9.346-4.733 18.869-10.256 28.842-4.65 8.398-9.963 15.515-15.473 20.923-5.606 5.583-11.234 9.554-16.806 12.184-5.571 2.63-11.008 4.192-16.039 4.606-5.031 0.415-10.821-0.276-16.748-1.958-5.927-1.682-12.088-4.179-18.912-7.958l-39.542-21.897c-0.875-0.484-1.284-1.397-0.8-2.271zm3.75 0.247 38.142 21.122c6.474 3.584 12.46 5.985 18.213 7.57 5.577 1.488 10.745 2.064 15.504 1.727 4.759-0.337 9.749-1.917 14.952-4.294 5.203-2.377 10.559-6.27 15.971-11.503 5.413-5.233 10.26-11.922 14.814-20.145 5.329-9.623 8.58-18.797 9.946-27.87 1.27-8.899 0.365-17.173-2.618-24.998-2.164-5.999-6.057-11.355-11.23-16.049-3.793-3.472-9.976-7.582-18.374-12.233l-36.218-20.056zm3.747-1.812 55.807-100.779 33.419 18.505c8.048 4.457 14.153 8.295 17.771 11.67 4.92 4.325 8.385 9.216 10.393 14.672l-0.097 0.175c2.827 7.28 3.576 15.011 2.422 23.288-1.348 8.627-4.405 17.45-9.54 26.723-4.36 7.874-9.111 14.388-14.251 19.543-5.044 4.98-9.935 8.444-14.866 10.743-4.659 2.221-9.552 3.626-13.864 3.982-4.312 0.356-9.305-0.123-14.436-1.592-5.402-1.392-11.292-3.967-17.59-7.455zm10.521-5.376c-1.356 2.45-0.498 5.44 1.952 6.797l23.445 12.983c7.874 4.36 14.482 6.876 19.631 7.898 5.771 1.139 10.88 0.996 15.23-0.254 5.98-1.717 12.036-5.222 17.721-10.533 5.49-4.961 10.803-12.079 15.648-20.827 6.879-12.422 9.933-23.305 9.591-32.182-0.402-9.596-3.307-17.148-8.074-22.989-3.327-3.9-9.667-8.553-18.94-13.689l-23.095-12.789c-2.45-1.356-5.44-0.497-6.796 1.952zm3.674 2.035 46.313-83.633c0.484-0.875 1.397-1.284 2.272-0.8l23.095 12.789c8.923 4.942 14.737 9.305 17.89 13.108 4.339 5.375 6.913 12.287 7.352 20.989 0.361 8.43-2.752 18.594-9.244 30.317-4.65 8.398-9.673 14.99-14.892 19.873-5.315 5.058-11.002 8.31-16.44 9.872-4.077 1.171-8.467 1.255-13.617 0.232-4.974-0.926-11.31-3.52-18.659-7.589l-23.445-12.983c-0.875-0.485-1.109-1.3-0.625-2.175zm3.75 0.247 21.87 12.111c6.999 3.876 12.985 6.276 17.688 7.28 4.527 0.907 8.742 0.726 12.277-0.289 5.165-1.483 10.036-4.501 15.061-9.034 5.025-4.533 9.776-11.047 14.233-19.096 6.201-11.197 9.198-20.739 8.818-28.723-0.302-7.712-2.622-14.255-6.63-18.989-3.075-3.531-8.636-7.526-17.034-12.176l-21.521-11.917zm5.394-4.786 38.27-69.111 15.747 8.72c7.349 4.069 12.482 7.598 15.128 10.663 3.152 3.804 4.636 8.969 4.916 15.068 0.243 6.993-2.524 15.292-7.949 25.09-4.07 7.348-8.258 13.259-12.914 17.539-4.094 3.677-8.053 6.286-12.402 7.535-2.719 0.781-5.672 0.746-8.956 0.071-4.177-0.713-9.445-3.173-15.744-6.661zm56.967-62.415 1.575 0.872c7.873 4.36 13.356 8.082 16.081 11.419 3.58 4.269 5.491 9.9 5.734 16.893 0.399 7.536-2.483 16.457-8.297 26.955-4.263 7.698-8.819 13.862-13.572 18.317-4.56 4.106-9.063 6.87-13.684 8.198-2.991 0.858-6.934 0.961-10.84 0.17-4.527-0.907-9.892-3.192-16.54-6.874l-1.4-0.775c6.649 3.682 12.013 5.967 16.541 6.874 3.905 0.791 7.674 0.591 10.664-0.267 4.622-1.328 9.125-4.092 13.684-8.198 4.753-4.455 9.31-10.619 13.573-18.317 5.813-10.498 8.87-19.322 8.471-26.858-0.242-6.993-2.154-12.624-5.734-16.893-2.724-3.337-8.382-7.156-16.256-11.516z" style="fill:#0d7eff"/>
		</g>
	</g>
</svg>
