<?xml version="1.0" encoding="utf-8"?>
<!-- Generator: Adobe Illustrator 24.1.1, SVG Export Plug-In . SVG Version: 6.00 Build 0)  -->
<!-- The text uses the Adobe Devanagari font at 140-point size. -->
<svg version="1.1" id="Layer_1" xmlns="http://www.w3.org/2000/svg" xmlns:xlink="http://www.w3.org/1999/xlink" x="0px" y="0px"
	 viewBox="0 0 304 168" style="enable-background:new 0 0 304 168;" xml:space="preserve">
<g>
	<path d="M45.223,56.091l0.547-0.752h13.604c-2.734-3.418-4.375-7.383-4.375-11.895c0-9.639,7.861-19.004,22.832-19.004
		c15.654,0,30.283,8.75,44.365,24.814l-2.461,3.418h-0.547c-11.211-12.51-23.242-20.439-36.641-20.439
		c-12.578,0-19.756,7.178-19.756,15.654c0,3.418,0.82,5.811,2.119,7.451h10.801l3.281,6.631l-0.547,0.752H66.072l0.273,62.617
		l-0.684,0.752l-7.656-2.051l0.205-61.318h-9.707L45.223,56.091z"/>
	<path d="M72.43,56.091l0.547-0.752h60.771l3.281,6.631l-0.547,0.752h-12.578l0.137,17.432l-0.82,0.957
		c-3.896-0.137-7.793-0.205-12.1-0.205c-8.818,0-15.654,1.367-18.525,3.896c-2.188,1.846-3.008,4.102-3.008,6.289
		c0,3.076,1.162,5.537,3.35,7.451c5.537-4.717,11.895-7.725,19.824-7.725c5.742,0,9.639,2.188,12.852,5.332
		s5.195,7.656,5.195,11.963c0,6.357-5.195,11.006-13.057,14.629h-0.479c-1.982-1.846-4.102-4.033-6.631-7.178
		c7.861-3.418,13.809-7.178,13.809-11.689c0-2.803-2.256-4.922-7.861-4.922c-6.904,0-21.26,5.537-21.26,16.543
		c0,12.92,16.27,18.525,37.529,20.713l-5.059,8.135h-0.479c-24.814-6.289-40.195-16.27-40.195-32.197
		c0-3.418,0.889-6.768,2.871-9.775c-5.537-4.99-8.613-10.186-8.613-15.381c0-4.717,1.914-8.34,5.742-10.732
		c3.623-2.188,9.98-3.145,18.936-3.145h8.271c1.23,0,1.846-0.684,1.846-1.777v-8.613H75.711L72.43,56.091z"/>
	<path d="M130.467,56.091l0.547-0.752h97.275l3.281,6.631l-0.547,0.752h-15.244l0.068,20.303l-0.684,0.684h-10.049
		c-15.859,0-23.311,4.99-23.311,13.945c0,7.93,6.084,14.014,15.449,14.014c3.691,0,7.041-0.957,10.527-2.666
		c-1.777-1.777-2.666-3.965-2.666-6.699c0-4.033,3.486-7.93,8.271-7.93c2.734,0,4.922,1.025,6.836,2.939
		c2.051,2.119,3.145,4.58,3.145,7.383c0,3.691-1.982,6.768-5.811,9.365c7.109,6.494,9.844,11.826,9.844,16.064
		c0,5.605-3.281,9.57-8.066,12.852h-0.547l-8.135-6.494c4.717-3.145,7.793-6.563,7.793-10.801c0-2.939-1.504-6.016-4.785-9.297
		c-4.102,2.051-8.203,2.734-12.441,2.734c-16.406,0-27.822-12.578-27.822-25.225c0-1.914,0.273-3.691,0.752-5.332
		c-2.461-0.205-4.922-0.273-7.178-0.273c-4.512,0-8.408,0.41-11.279,1.299v5.605c0,3.008-0.273,5.059-0.684,5.879
		c-1.025,1.777-2.598,2.598-4.58,2.598c-3.076,0-11.963-9.023-11.963-14.971c0-2.393,1.572-4.58,4.854-6.084
		c3.691-1.641,8.066-2.051,12.51-2.051s15.039,0.615,22.148,1.436c4.102-4.102,10.664-6.221,18.594-6.221h9.502
		c1.367,0,2.051-0.684,2.051-1.914V62.722h-74.375L130.467,56.091z"/>
	<path d="M225.008,56.091l0.547-0.752h12.441c-1.094-15.791-7.383-23.584-16.68-23.584c-6.494,0-10.049,4.443-10.049,9.297
		c0,4.102,1.846,7.93,4.58,11.484l-0.615,0.752l-7.246-3.35c-3.145-3.76-5.195-7.793-5.195-12.1c0-7.178,5.127-12.988,14.697-12.988
		c13.125,0,25.84,12.578,28.164,30.488h9.844l3.281,6.631l-0.547,0.752h-12.373l0.273,62.617l-0.684,0.752l-7.656-2.051
		l0.205-61.318h-9.707L225.008,56.091z"/>
</g>
</svg>
