<?xml version="1.0" encoding="utf-8"?>
<!-- Svg Vector Icons : http://www.onlinewebfonts.com/icon -->
<!DOCTYPE svg PUBLIC "-//W3C//DTD SVG 1.1//EN" "http://www.w3.org/Graphics/SVG/1.1/DTD/svg11.dtd">
<svg version="1.1" xmlns="http://www.w3.org/2000/svg" xmlns:xlink="http://www.w3.org/1999/xlink" x="0px" y="0px" viewBox="0 0 1000 1000" enable-background="new 0 0 1000 1000" xml:space="preserve">
<metadata> Svg Vector Icons : http://www.onlinewebfonts.com/icon </metadata>
<g><g transform="translate(0.000000,512.000000) scale(0.100000,-0.100000)"><path d="M4693.7,4749.3v-268l-1898.8-3.8l-1900.7-5.7l-5.7-2941.9L884.8-1414H492.4H100v-555.1v-555.1h1502.5c991.5,0,1502.5-5.7,1502.5-19.1c0-11.5-122.5-480.4-269.9-1043.2c-149.3-564.6-266.1-1029.8-260.3-1035.5c11.5-11.5,574.2-162.7,578.1-155c1.9,1.9,74.6,275.6,160.8,606.8s166.5,631.6,176.1,664.2l21.1,63.2H5000h1489.1l21.1-61.3c9.6-34.5,89.9-335,176.1-666.1s158.9-604.8,160.8-606.8c3.8-7.7,568.5,143.6,578,155c5.7,5.7-111,472.8-260.3,1039.3c-149.3,566.6-269.9,1035.5-269.9,1045.1c0,7.7,675.7,13.4,1502.5,13.4H9900v555.1v555.1h-392.4h-392.4l-3.8,2943.8l-5.7,2941.9l-1898.7,5.7l-1900.7,3.8v268v268H5000h-306.3V4749.3z M8805.2,1376.7L8809-1414H5000H1191v2781.1c0,1531.2,5.7,2788.8,13.4,2794.5c5.7,7.7,1718.8,11.5,3803.2,9.6l3791.8-5.7L8805.2,1376.7z M9593.7-1969.1v-248.8H5000H406.2v248.8v248.8H5000h4593.7V-1969.1z M6251.8-2539.5c3.8-7.7,42.1-145.5,84.2-306.3l78.5-290.9H5000H3587.4l74.6,281.4c40.2,155,78.5,292.9,82.3,306.3c7.7,21.1,248.8,24.9,1253.7,24.9C5681.4-2524.1,6246-2529.9,6251.8-2539.5z"/><path d="M2559.6,1981.6c-47.9-88-197.1-222-306.3-275.6l-86.1-42.1v-122.5c0-67,7.7-122.5,17.2-122.5c36.4,0,151.2,57.4,245,122.5l101.4,68.9l3.8-530.2l5.7-532.1l139.7-5.7l137.8-5.8v758v756.1h-111C2599.8,2050.5,2595.9,2048.6,2559.6,1981.6z"/><path d="M4808.6,2025.6c-135.9-38.3-218.2-99.5-271.8-199.1c-59.3-112.9-82.3-214.4-47.9-225.9c11.5-3.8,76.6-11.5,139.7-17.2l118.7-9.6l13.4,67c19.1,103.4,86.1,160.8,187.6,160.8c105.3,0,179.9-53.6,197.1-143.6c23-126.3-19.1-193.3-310.1-490c-218.2-222-285.2-302.4-331.1-402c-32.5-67-59.3-145.5-59.3-174.2v-53.6h497.7h497.7v134v134h-277.5c-193.3,0-277.5,5.7-277.5,21.1c0,13.4,97.6,118.7,218.2,235.4c235.4,229.7,312,346.5,331.1,505.3c21.1,183.8-74.6,356-237.3,428.8C5091.9,2042.8,4915.8,2056.2,4808.6,2025.6z"/><path d="M7147.6,2016c-120.6-44-187.6-101.5-235.4-204.8c-55.5-120.6-49.8-157,36.4-170.3c38.3-7.7,93.8-17.2,120.6-23c42.1-7.7,53.6-1.9,63.2,40.2c21,86.1,95.7,143.6,183.7,143.6c105.3,0,153.1-49.8,153.1-160.8c0-70.8-9.6-91.9-59.3-134c-34.5-28.7-82.3-49.8-114.8-49.8c-30.6,0-55.5-9.6-57.4-23c0-13.4-7.7-65.1-15.3-114.8l-15.3-90l101.4,3.8c82.3,3.8,109.1-3.8,149.3-42.1c181.8-170.4,32.5-495.7-193.3-421.1c-68.9,21.1-139.7,112.9-139.7,176.1c0,28.7-11.5,34.5-51.7,24.9c-30.6-3.8-93.8-15.3-145.5-21.1c-86.1-11.5-90-13.4-78.5-63.2c67-279.5,348.4-426.8,647-340.7c361.7,105.3,459.4,597.2,151.2,761.8l-80.4,42.1l67,55.5c36.4,30.6,80.4,80.4,95.7,112.9c38.3,72.7,38.3,225.9,0,296.7C7631.8,2004.5,7369.6,2094.5,7147.6,2016z"/><path d="M3641,1610.2v-191.4h-189.5h-187.6l-9.6-70.8c-5.7-40.2-5.7-101.4-1.9-134l9.6-63.2h189.5H3641V959.5V768.1h134h134v191.4v191.4h191.4h191.4v134v134h-191.4H3909v191.4v191.4h-134h-134V1610.2z"/><path d="M5631.6,1514.5v-134h516.8h516.8v134v134h-516.8h-516.8V1514.5z"/><path d="M5631.6,1055.2v-134h516.8h516.8v134v134h-516.8h-516.8V1055.2z"/></g></g>
</svg>